<svg xmlns="http://www.w3.org/2000/svg" xmlns:xlink="http://www.w3.org/1999/xlink" width="1684pt" height="1588" viewBox="0 0 1684 1191"><clipPath id="a"><path transform="matrix(.03 0 0 -.03 14 1143)" d="M6217 0h42746v36472H6217V0"/></clipPath><g clip-path="url(#a)" stroke-width="12" stroke-linecap="round" stroke-linejoin="round" fill="none" stroke="#000"><g data-name="panorama-tomes"><path d="M1227.53 134.82v257.4M1227.53 424.05V641.7M1039.19 134.82v257.4M1039.19 424.05V641.7M850.88 134.82v257.4M850.88 424.05v222.24M687.35 134.82v257.4M687.35 424.05V641.7M461.33 134.82v257.4M461.33 424.05v222.24" stroke-width=".36"/></g><g data-name="grammes_axones"><path d="M619.97 1001.61h467.31M275.39 319.5h1120.74M619.97 973.53h467.31M275.39 291.42h1120.74M619.97 945.45h467.31M275.39 263.34h1120.74M619.97 917.4h467.31M275.39 235.29h1120.74M619.97 889.32h467.31M275.39 207.21h1120.74" stroke-width=".36"/></g><g data-name="grammes"><path d="M368.142 624.3c-.364-.014-.709 1.167-.935 3.204M1227.53 369.81l-55.59-.15-27.78-.09-27.81-.12-27.78-.15-27.81-.21-27.78-.3-27.78-.33-55.59-.78-27.78-.39-27.81-.36-13.89-.15-13.89-.12-13.89-.12-13.92-.09-13.89-.06-13.89-.06-27.78-.06h-83.4l-27.78-.03-55.59-.15-27.78-.06-27.81-.06h-27.78l-13.92.03-13.89.03-13.89.06-13.89.09-13.89.09-13.89.15-13.92.09-6.93.03h-6.96l-6.96-.03-6.93-.09-6.96-.12-6.93-.18-3.48-.12-3.48-.15-3.45-.15-3.48-.21-3.48-.24-1.71-.15-1.74-.18-1.74-.18-1.71-.21-.87-.12-.84-.18-.87-.18-.81-.27-.84-.3-.78-.39-.75-.42-.72-.51-.36-.24-.33-.3-.63-.57-.57-.66-.54-.66-.48-.72-.45-.75-.39-.78-.39-.81-.33-.84-.3-.84-.27-.87-.24-.87-.24-.87-.18-.9-.18-.87-.15-.87-.27-1.74-.21-1.74-.15-1.71-.12-1.74-.18-3.42M1227.53 344.07l-58.05-.42-29.01-.24-29.04-.3-29.01-.33-29.01-.36-14.52-.24-14.52-.24-29.01-.51-58.05-1.14-29.01-.57-29.01-.54-29.01-.51-29.01-.42-29.01-.36-29.01-.3-29.04-.24-29.01-.21-29.07-.15-14.52-.09-14.52-.15-7.26-.09-7.26-.12-7.26-.12-7.26-.15-7.26-.21-7.23-.21-7.26-.27-7.23-.3-7.26-.33-7.23-.39-7.23-.45-7.26-.48-7.2-.57-7.23-.6-7.23-.66-7.2-.72-7.23-.78-7.2-.84-7.2-.93-7.17-.96-7.2-1.02-7.17-1.11-7.17-1.17-7.17-1.23-7.17-1.29-7.14-1.38-3.57-.72-3.57-.78-1.77-.42-1.74-.45-1.77-.45-1.74-.51-1.71-.51-1.71-.57-1.71-.6-1.68-.63-1.68-.66-1.68-.72-1.65-.72-1.65-.75-1.62-.81-1.62-.81-1.59-.84-1.59-.87-1.59-.87-1.59-.93-1.56-.93-1.56-.93-1.56-.99-1.53-.99-3.06-2.01-3.03-2.07-3-2.13-2.97-2.13-2.97-2.19-2.94-2.19-2.91-2.19-2.88-2.22-2.88-2.22-2.88-2.22-2.82-2.25-2.85-2.28-2.79-2.28-2.79-2.31-2.76-2.34-2.73-2.37-2.73-2.4-2.67-2.43-1.35-1.23-1.32-1.23-1.29-1.26-1.29-1.29-1.29-1.29-1.26-1.29-2.49-2.64-2.43-2.67-2.4-2.73-2.37-2.76-2.31-2.79-2.31-2.79-2.31-2.82-2.25-2.85-4.53-5.7M1364.81 162.36l-16.23 4.08-8.13 1.98-8.13 1.95-8.16 1.89-8.16 1.8-4.08.9-4.11.84-4.11.84-4.08.78-4.11.78-4.14.75-4.11.75-4.11.69-8.28 1.35-8.25 1.29-8.31 1.17-8.28 1.14-8.31 1.05-8.31.96-8.34.93-8.31.87-8.34.81-8.34.75-8.34.72-8.34.66-8.34.6-8.34.57-8.37.51-8.34.48-8.37.42-8.37.39-8.34.36-8.37.3-8.37.27-8.37.24-8.37.21-8.37.21-8.37.15-8.37.12-8.37.09-8.37.09-16.74.09h-16.74l-16.74-.09-16.74-.15-16.74-.21-16.74-.33-16.71-.36-16.74-.45-16.71-.54-16.74-.6-16.71-.66-16.71-.72-16.71-.81-16.71-.87-16.71-.96-8.37-.51-8.34-.54-8.34-.54-8.37-.6-8.34-.6-8.34-.63-8.34-.66-8.34-.69-8.34-.72-8.34-.75-8.34-.78-8.31-.81-8.34-.84-8.31-.87-8.34-.9-8.31-.96-8.31-.96-8.31-1.02-8.31-1.05-8.28-1.08-8.31-1.14-8.28-1.14-8.28-1.2-8.28-1.23-8.28-1.26-8.28-1.32-8.25-1.32-8.25-1.41-8.25-1.41-8.25-1.47-8.22-1.5-8.25-1.53-8.19-1.59-8.22-1.62-8.19-1.68-8.19-1.68-8.19-1.74-8.19-1.77-16.35-3.57-32.7-7.14-32.7-7.11-32.7-7.08-65.43-14.13" stroke-width=".36"/></g></g><clipPath id="b"><path transform="matrix(.03 0 0 -.03 14 1143)" d="M6217 0h42746v36472H6217V0"/></clipPath><g clip-path="url(#b)"><g data-name="panorama-tomes"><symbol id="c"><path d="M0 0v.716h.483V.63H.095V.41H.43V.325H.095V0H0z"/></symbol><symbol id="d"><path d="M0 0z"/></symbol><symbol id="e"><path d="m0 .2.092.008A.167.167 0 0 1 .14.106.13.13 0 0 1 .23.072.14.14 0 0 1 .337.12a.18.18 0 0 1 .044.127c0 .05-.014.09-.042.119a.146.146 0 0 1-.11.043.152.152 0 0 1-.13-.07L.015.352l.069.367h.356V.634H.155L.117.442c.043.03.088.045.135.045A.214.214 0 0 0 .41.422.227.227 0 0 0 .475.255.26.26 0 0 0 .418.087.227.227 0 0 0 .23 0a.232.232 0 0 0-.16.055A.214.214 0 0 0 0 .2z"/></symbol><use xlink:href="#c" transform="matrix(19.60959 0 0 -19.60959 1218.099 120.87)"/><use xlink:href="#d" transform="matrix(19.60959 0 0 -19.60959 1228.471 120.87)"/><use xlink:href="#e" transform="matrix(19.60959 0 0 -19.60959 1234.737 121.11)"/></g><clipPath id="f"><path transform="matrix(.03 0 0 -.03 14 1143)" d="M6217 0h42746v36472H6217V0"/></clipPath><g clip-path="url(#f)"><symbol id="g"><path d="M.31 0v.171H0v.081l.327.464h.071V.252h.097v-.08H.398V0H.311m0 .252v.323L.086.252h.225z"/></symbol><use xlink:href="#c" transform="matrix(19.60959 0 0 -19.60959 1027.899 120.87)"/><use xlink:href="#d" transform="matrix(19.60959 0 0 -19.60959 1038.272 120.87)"/><use xlink:href="#g" transform="matrix(19.60959 0 0 -19.60959 1043.972 120.87)"/><symbol id="h"><path d="m0 .202.088.011A.196.196 0 0 1 .139.105.129.129 0 0 1 .228.073c.041 0 .076.014.105.043a.145.145 0 0 1 .042.106.136.136 0 0 1-.14.14.252.252 0 0 1-.062-.01l.01.077.014-.001c.038 0 .071.01.101.029.03.02.045.05.045.09 0 .033-.01.06-.032.08A.116.116 0 0 1 .226.66.12.12 0 0 1 .141.627.162.162 0 0 1 .097.53L.009.546c.01.059.035.104.073.137A.211.211 0 0 0 .224.73C.264.731.3.723.332.706a.179.179 0 0 0 .102-.16C.434.513.425.485.409.46A.17.17 0 0 0 .335.4.166.166 0 0 0 .434.338.184.184 0 0 0 .469.224.212.212 0 0 0 .4.064.24.24 0 0 0 .228 0 .218.218 0 0 0 0 .202z"/></symbol><use xlink:href="#c" transform="matrix(19.60959 0 0 -19.60959 841.359 120.93)"/><use xlink:href="#d" transform="matrix(19.60959 0 0 -19.60959 851.731 120.93)"/><use xlink:href="#h" transform="matrix(19.60959 0 0 -19.60959 858.006 121.179)"/><symbol id="i"><path d="M.474.084V0H0C0 .021.003.042.01.061a.325.325 0 0 0 .058.095.923.923 0 0 0 .115.109c.078.063.13.114.157.151a.183.183 0 0 1 .041.106.116.116 0 0 1-.037.088.133.133 0 0 1-.097.036.137.137 0 0 1-.102-.038.144.144 0 0 1-.038-.106l-.09.01c.005.067.029.118.07.154C.127.7.181.719.25.719A.227.227 0 0 0 .413.662.188.188 0 0 0 .473.52.215.215 0 0 0 .455.436.325.325 0 0 0 .397.348 1.392 1.392 0 0 0 .26.222 1.46 1.46 0 0 1 .16.132.281.281 0 0 1 .123.084h.35z"/></symbol><use xlink:href="#c" transform="matrix(19.60959 0 0 -19.60959 676.509 120.93)"/><use xlink:href="#d" transform="matrix(19.60959 0 0 -19.60959 686.881 120.93)"/><use xlink:href="#i" transform="matrix(19.60959 0 0 -19.60959 692.914 120.93)"/><symbol id="j"><path d="M.264 0H.176v.56A.582.582 0 0 0 0 .454V.54a.53.53 0 0 1 .129.084.33.33 0 0 1 .078.096h.057V0z"/></symbol><use xlink:href="#c" transform="matrix(19.60959 0 0 -19.60959 455.259 120.93)"/><use xlink:href="#d" transform="matrix(19.60959 0 0 -19.60959 465.631 120.93)"/><use xlink:href="#j" transform="matrix(19.60959 0 0 -19.60959 473.218 120.93)"/></g><g data-name="grammes" stroke-width="12" stroke-linecap="round" stroke-linejoin="round" fill="none" stroke="#000"><path d="m1379.69 150.75-.78 5.16-.72 5.13-.69 5.16-.66 5.13-.57 5.16-.27 2.58-.24 2.58-.24 2.58-.21 2.58-.18 2.61-.18 2.58-.33 5.19-.36 5.22-.42 5.19-.45 5.19-.48 5.19-.48 5.22-1.02 10.35-.51 5.19-.48 5.19-.42 5.16-.42 5.19-.36 5.19-.36 5.19-.3 5.19-.33 5.22-.3 5.19-.33 5.22-.36 5.19-.39 5.22-.45 5.19-.48 5.19-.57 5.19-.3 2.58-.33 2.58-.3 2.61-.3 2.58-.57 5.19-.33 2.61-.36 2.58-.21 1.32-.24 1.29-.24 1.32-.3 1.29-.3 1.29-.33 1.32-.39 1.29-.45 1.29-.51 1.26-.54 1.26-.6 1.23-.66 1.2-.69 1.17-.75 1.17-.78 1.11-.84 1.08-.9 1.05-.93 1.02-.96.96-1.02.93-1.05.87-1.08.81-1.11.78-1.17.72-1.17.66-1.2.63-1.2.57-1.23.54-1.23.51-1.26.45-1.26.42-1.26.39-1.29.36-1.29.33-1.26.3-1.29.3-1.29.24-1.29.24-1.26.21-1.26.18-1.23.18-1.2.18-1.14.15-1.14.15-1.08.15-1.05.15-1.02.12-1.02.12-.96.09-.96.09-.9.12-.9.06-.9.09-.84.09-1.68.12-1.62.12-1.59.09-1.56.09-1.53.09-3.09.12-1.56.09-1.62.06-1.65.09-.84.03-.87.06-.9.06-.9.03-.93.06-.96.06-.99.06-.99.03-1.05.06-1.08.06-1.08.06-1.14.06-1.17.06-1.2.06-1.23.06-1.29.06-1.32.03-1.35.06-1.41.06-1.47.06-1.5.06-1.56.03-1.59.06-1.65.06-1.71.03-1.77.03-1.83.06-1.86.03-1.95.03-2.01.03-2.07.03-2.13.03-1.08.03h-1.11l-1.11.03H1245.95l-1.2.03h-17.22" stroke-width=".36"/><path d="m1364.81 162.36-.78 8.46-.78 8.46-.72 8.46-.78 8.46-.42 4.23-.45 4.23-.48 4.23-.54 4.2-.57 4.23-.6 4.2-.6 4.23-.66 4.2-.66 4.17-.69 4.2-1.44 8.37-1.47 8.34-.75 4.14-.78 4.17-.81 4.14-.81 4.17-.87 4.17-.87 4.17-.93 4.17-.99 4.17-.51 2.1-.51 2.1-.57 2.07-.6 2.07-.66 2.04-.69 2.01-.36 1.02-.39.96-.42.99-.42.96-.45.96-.48.96-.48.93-.51.9-.54.93-.54.87-.6.9-.6.84-.63.87-.63.84-.69.81-.66.81-.72.81-.72.78-1.47 1.56-1.5 1.53-1.56 1.5-1.59 1.47-1.65 1.44-1.65 1.41-1.71 1.35-1.74 1.35-1.74 1.26-1.8 1.26-1.83 1.2-1.83 1.14-1.89 1.11-1.89 1.05-1.92.99-1.95.93-1.95.87-1.98.81-2.01.78-1.02.33-1.02.36-.99.3-1.05.33-1.02.27-1.02.27-1.02.24-1.05.24-1.05.21-1.02.21-1.05.18-1.05.15-1.05.15-1.08.12-2.1.21-2.13.15-2.1.12-2.13.09-2.13.06-4.26.09-4.23.03-4.26.03-8.49-.03h-8.49l-8.49.03-8.49.06M1343.57 167.85l1.89-12.57M1348.35 152.328a3.705 3.705 0 0 0-2.887 2.948M1348.34 152.34l28.95-4.08M1379.71 150.744a2.295 2.295 0 0 0-2.4-2.511" stroke-width=".36"/><path d="m1361.33 200.43-16.17 3.51-16.17 3.51-8.1 1.71-8.1 1.68-8.13 1.65-8.1 1.59-8.13 1.56-8.13 1.53-8.16 1.47-8.16 1.41-8.16 1.38-8.16 1.35-8.19 1.29-8.16 1.29-8.19 1.23-8.19 1.2-8.19 1.14-8.22 1.14-8.19 1.05-8.22 1.02-8.22.96-8.25.9-8.22.87-8.25.81-8.22.75-8.25.72-8.28.69-8.25.6-8.25.6-8.28.54-8.25.48-8.28.45-8.28.42-8.25.39-8.28.33-8.28.3-8.28.27-8.28.24-8.28.18-8.25.18-8.28.12-8.28.09-8.28.06-8.28.03-8.28-.03-8.28-.03L959 243l-8.28-.12-8.28-.12-8.28-.15-8.28-.18-8.28-.21-16.53-.45-16.56-.54-16.56-.6-16.53-.66-16.56-.69-16.53-.72-16.56-.81-16.53-.87-8.28-.45-8.25-.51-8.25-.51-8.28-.54-8.25-.6-8.25-.6-8.25-.63-8.25-.66-8.25-.72-8.25-.75-8.22-.78-8.25-.81-8.22-.87-8.25-.9-8.22-.96-8.22-.96-8.22-1.05-8.19-1.05-8.22-1.11-8.19-1.14-8.19-1.17-8.19-1.23-8.19-1.23-8.19-1.29-8.16-1.32-8.16-1.35-8.16-1.41-8.16-1.41-8.16-1.47-8.13-1.5-8.16-1.5-8.1-1.56-8.13-1.59-8.13-1.62-8.1-1.68-8.1-1.68-8.1-1.71-8.1-1.77-8.07-1.8-8.07-1.83-8.07-1.83-8.07-1.92-8.07-1.92-8.04-1.98-8.01-2.01-8.04-2.07-8.01-2.13-7.98-2.16-7.98-2.22-7.95-2.28-7.95-2.34-7.92-2.37-7.89-2.46-7.89-2.52-7.86-2.58-7.86-2.64-15.69-5.31M356.06 339.39H371.03l-4.44-55.92M298.43 89.07l-4.08.72M294.368 89.8a5.055 5.055 0 0 0-2.836 1.799M291.516 91.58a4.845 4.845 0 0 0-.927 3.304M290.57 94.92l8.31 37.44 17.67 79.77 3 15.21 5.37 23.61 2.25 9.84M340.951 266.348a57.976 57.976 0 0 0 25.675 17.115M340.934 266.341a16.185 16.185 0 0 0-9.574-4.87M331.34 261.48l-4.17-.69M845.6 830.37l.45 102.3.03 10.23 9.57.03.03-10.26.39-102.3-.42-59.19h-9.57l-.48 59.19M971.24 792l-.36 2.64-.39 2.61-.21 1.32-.24 1.29-.27 1.32-.27 1.26-.33 1.29-.36 1.29-.36 1.26-.42 1.23-.45 1.26-.48 1.23-.48 1.23-.54 1.2-.54 1.23-.6 1.2-.6 1.17-.6 1.17-.66 1.2-.66 1.14-.69 1.17-.69 1.14-.72 1.14-.75 1.11-.75 1.11-.75 1.11-1.59 2.19-1.62 2.16-1.65 2.13-1.68 2.07-1.74 2.04-1.77 2.01-1.8 1.95-1.83 1.92-1.89 1.89-1.89 1.8-1.98 1.8-1.98 1.71-1.02.84-1.02.84-1.02.81-1.05.81-2.13 1.56-2.16 1.53-2.16 1.47-2.22 1.44-2.25 1.41-2.25 1.38-2.28 1.35-2.28 1.35-4.62 2.64-4.65 2.64-4.62 2.64-2.28 1.35-2.28 1.38-2.28 1.38-2.25 1.44-2.22 1.44-2.22 1.5-2.19 1.5-2.16 1.56-2.13 1.59-2.1 1.62-2.04 1.65-2.04 1.71-2.01 1.74-1.95 1.77-1.92 1.83-1.89 1.86-1.83 1.89-1.83 1.92-1.83 1.95-1.77 1.95-3.57 3.93M856.13 771.18h7.74l7.71.03 7.68.03 7.68.12 3.81.06 3.81.09 3.78.12 3.78.12 3.75.15 3.75.18 3.72.21 3.72.27 3.69.27 3.72.3 3.72.36 3.75.42 3.75.45 1.92.24 1.92.24 1.92.3 1.92.27 1.98.3 1.95.33 1.98.33 2.01.36 2.04.39 2.01.39.99.24.99.24.99.27.96.27.93.33.9.33.9.36.84.42.84.45.78.48.75.51.69.57.33.3.33.33.3.33.3.33.3.36.27.36.51.75.45.81.42.84.42.9.36.9.36.9.33.93.66 1.92" stroke-width=".36"/><path d="M856.13 783.09h14.46l7.23.03 7.23.09 3.63.09 3.6.09 3.6.09 3.63.15 3.6.15 3.6.18 3.63.21 3.6.24 3.6.27 3.6.3 3.6.36 3.6.36 3.57.39 3.6.42 3.6.45 3.57.48 3.6.48 3.57.54 3.57.54 3.57.57 7.11 1.2 7.14 1.23M855.32 1020.78v21.54M846.41 1042.32v-21.54M855.32 1042.32v5.76M846.451 1048.078c2.919.723 5.97.723 8.888 0M846.41 1048.08v-5.76M855.32 1020.78l8.52-1.65 8.52-1.65 4.29-.78 4.26-.78 4.26-.75 4.29-.72 4.29-.72 4.29-.66 4.29-.66 4.29-.63 17.19-2.43 8.61-1.26 4.29-.63 4.29-.66 4.29-.69 4.29-.72 4.26-.72 4.29-.81 4.26-.84 2.13-.42 2.1-.48 2.13-.48 2.1-.51 2.13-.51 2.1-.57 2.07-.57 2.1-.6 2.1-.63 2.07-.66 2.07-.69 2.04-.72 2.07-.78 2.04-.78 2.01-.84 2.01-.87 2.01-.93 1.95-.96 1.92-1.02 1.92-1.08.93-.57.93-.57.9-.57.9-.6.9-.63.9-.63.87-.63.84-.66.84-.69.84-.69.81-.72.81-.72.78-.75.78-.75.78-.78.75-.78.72-.81.72-.81.72-.84.69-.84.66-.87.69-.87.63-.87.66-.9 1.23-1.8 1.2-1.86 1.14-1.89 1.08-1.92 1.05-1.95.96-1.98.93-1.98.9-2.04.84-2.01.78-2.07.75-2.04.69-2.07.66-2.07.6-2.1.6-2.07.54-2.1.54-2.13.48-2.1.48-2.13.45-2.13.84-4.23.81-4.29.78-4.26.75-4.29.75-4.26.69-4.29.69-4.29.69-4.29.66-4.29 1.26-8.58 1.23-8.61" stroke-width=".36"/></g><g data-name="panorama-tomes"><use xlink:href="#c" transform="matrix(19.60959 0 0 -19.60959 1055.499 881.55)"/><use xlink:href="#d" transform="matrix(19.60959 0 0 -19.60959 1065.871 881.55)"/><use xlink:href="#h" transform="matrix(19.60959 0 0 -19.60959 1072.146 881.799)"/></g><g data-name="grammes" stroke-width="12" stroke-linecap="round" stroke-linejoin="round" fill="none" stroke="#000"><path d="M855.32 1019.16v23.4M846.41 1042.56v-23.4M855.32 1042.56V1047.93M846.45 1047.902c2.929.637 5.961.637 8.89 0M846.41 1047.93V1042.56M855.32 1019.16l8.28-2.49 4.14-1.23 4.17-1.2 4.14-1.2 4.17-1.14 4.17-1.14 4.17-1.08 4.2-1.05 4.2-1.02 4.2-.96 4.2-.93 4.23-.93 4.23-.9 8.46-1.77 8.46-1.74 8.46-1.77 4.23-.93 4.23-.9 4.23-.96 4.23-.99 4.2-1.05 2.1-.54 2.07-.57 2.1-.6 2.07-.63 2.04-.63 2.07-.69 2.04-.69 2.04-.75 2.01-.78 2.01-.81 2.01-.84 1.98-.9 1.95-.96 1.95-.99 1.95-1.02 1.92-1.08 1.89-1.14 1.86-1.17 1.86-1.23 1.8-1.26 1.8-1.29 1.77-1.35 1.74-1.38 1.71-1.44 1.68-1.47 1.65-1.5 1.59-1.53 1.56-1.56 1.53-1.62 1.5-1.65 1.44-1.65 1.41-1.71 1.35-1.74 1.32-1.77 1.26-1.8 1.2-1.83 1.17-1.86 1.11-1.86 1.08-1.92.99-1.92.93-1.95.9-1.98.84-2.01.75-2.01.72-2.04.66-2.04.63-2.07.6-2.07.54-2.1.54-2.1.48-2.13.48-2.1.87-4.26.84-4.26.84-4.26.81-4.26.78-4.23.75-4.26.72-4.26.66-4.26.66-4.29.6-4.26.57-4.29.51-4.29.48-4.29" stroke-width=".36"/></g><g data-name="panorama-tomes"><use xlink:href="#c" transform="matrix(19.60959 0 0 -19.60959 1045.809 859.32)"/><use xlink:href="#d" transform="matrix(19.60959 0 0 -19.60959 1056.181 859.32)"/><use xlink:href="#i" transform="matrix(19.60959 0 0 -19.60959 1062.214 859.32)"/></g><g data-name="grammes" stroke-width="12" stroke-linecap="round" stroke-linejoin="round" fill="none" stroke="#000"><path d="M846.41 1043.73v-25.74h8.91V1047.81" stroke-width=".36"/><path d="M846.453 1047.785c2.908.793 5.976.793 8.884 0M846.41 1047.81v-4.08M855.32 1047.24h-8.91M858.83 1002.78l4.74-6.12 2.37-3 2.46-3 1.23-1.47 1.23-1.47 1.26-1.44 1.29-1.44 1.29-1.41 1.32-1.41 1.32-1.38 1.38-1.35 1.35-1.32 1.41-1.32 1.41-1.32 1.41-1.29 1.44-1.26 1.47-1.26 1.47-1.23 1.5-1.23 1.5-1.2 1.5-1.17 1.53-1.2 1.56-1.14 1.53-1.17 1.59-1.11 3.15-2.25 3.21-2.19 3.24-2.13 3.24-2.1 3.3-2.07 3.33-2.04 3.33-1.98 3.33-1.98 3.36-1.95 6.72-3.84 6.69-3.84 3.33-1.92 3.33-1.95 3.3-1.95 3.27-2.01 3.27-2.04 3.21-2.13 1.59-1.05 1.59-1.11 1.59-1.11 1.56-1.11 1.56-1.17 1.53-1.14 1.56-1.2 1.5-1.23 1.53-1.23 1.5-1.26 1.47-1.29 1.47-1.29 1.44-1.32 1.44-1.35 1.41-1.38 1.38-1.41 1.35-1.41 1.35-1.44 1.29-1.47 1.29-1.47 1.26-1.5 1.23-1.53 1.17-1.56 1.17-1.56 1.11-1.59 1.11-1.59 1.05-1.62.99-1.65.99-1.68.93-1.68.9-1.71.84-1.71.81-1.77.75-1.74.69-1.8.66-1.8.63-1.8.57-1.83.54-1.86.48-1.86.45-1.86.42-1.89.39-1.89.36-1.89.33-1.92.3-1.92.3-1.92.27-1.92.45-3.84.42-3.87.39-3.84.36-3.84.69-7.68" stroke-width=".36"/></g><g data-name="panorama-tomes"><use xlink:href="#c" transform="matrix(19.60959 0 0 -19.60959 1011.789 821.7)"/><use xlink:href="#d" transform="matrix(19.60959 0 0 -19.60959 1022.161 821.7)"/><use xlink:href="#j" transform="matrix(19.60959 0 0 -19.60959 1029.748 821.7)"/></g><g data-name="grammes" stroke-width="12" stroke-linecap="round" stroke-linejoin="round" fill="none" stroke="#000"><path d="m855.32 1017.99 3.51-15.21M1047.56 875.25l.06-1.83.03-.9-.03-.9-.03-.9-.09-.93-.09-.9-.15-.87-.18-.9-.21-.9-.24-.87-.27-.87-.27-.87-.33-.87-.33-.84-.33-.84-.36-.84-.39-.84-.42-.81-.42-.81-.87-1.59-.93-1.56-.96-1.53-1.02-1.53-1.05-1.47-1.08-1.44-1.11-1.41-1.17-1.41-1.17-1.38-1.23-1.35-1.23-1.32-1.26-1.32-1.29-1.29-1.32-1.26-1.32-1.26-1.35-1.26-1.35-1.23-1.38-1.23-2.79-2.4-2.82-2.37-2.82-2.34-2.85-2.34-5.67-4.59-5.7-4.56-5.7-4.53-5.7-4.47-5.7-4.47-11.43-8.85M952.34 833.88l6.51 4.59 6.48 4.59 6.48 4.62 6.45 4.68 3.21 2.37 3.18 2.37 3.18 2.4 3.18 2.43 3.15 2.46 3.15 2.46 3.12 2.49 3.09 2.55 3.09 2.55 3.06 2.61 3.03 2.61 1.47 1.35 1.5 1.35 1.47 1.38 1.44 1.38 1.44 1.41 1.38 1.41 1.41 1.44 1.35 1.47 1.32 1.5 1.32 1.5 1.29 1.53 1.23 1.56 1.23 1.59 1.17 1.62 1.14 1.65 1.11 1.68 1.08 1.71 1.02 1.74.99 1.77.93 1.83.9 1.86.42.93.39.93.3.96.15.48.12.48.12.48.09.51.06.48.03.48.03.48-.03.51-.03.48-.06.51-.15.99-.21.99M333.11 227.34l-2.52-15.21-26.73-102.24-2.31-8.82-3.12-12-.33-1.41 10.35-.72 6.69 25.47M1379.69 632.79v-5.28H290.57v5.28M1364.87 627.51l-12.84-11.88-6.45-5.91-6.45-5.88-6.51-5.88-6.51-5.79-6.6-5.76-3.3-2.85-3.33-2.85-3.33-2.82-3.36-2.79-3.39-2.79-3.39-2.76-3.39-2.76-3.45-2.7-3.45-2.7-3.45-2.67-3.48-2.64-3.51-2.64-3.54-2.58-3.54-2.58-3.54-2.55-3.57-2.52-3.6-2.49-3.63-2.46-3.63-2.46-3.66-2.4-3.66-2.37-3.72-2.34-3.69-2.31-3.75-2.28-3.75-2.28-3.78-2.19-3.78-2.19-3.81-2.16-3.84-2.13-3.87-2.07-3.87-2.04-3.87-2.04-3.9-1.98-3.93-1.95-3.96-1.92-3.96-1.89-3.96-1.86-3.99-1.83-4.02-1.77-4.02-1.77-4.02-1.74-4.05-1.68-4.08-1.68-4.08-1.62-4.08-1.62-4.11-1.56-4.11-1.53-4.14-1.53-4.14-1.47-4.14-1.44-4.17-1.44-4.17-1.38-4.2-1.35-4.2-1.32-4.2-1.32-4.2-1.26-4.23-1.23-4.23-1.2-4.26-1.2-4.23-1.14-4.26-1.11-4.26-1.11-4.26-1.05-4.29-1.02-4.29-1.02-4.29-.96-4.29-.96-4.29-.93-4.29-.87-4.32-.87-4.29-.84-4.32-.81-4.32-.78-4.32-.75-4.32-.72-4.32-.69-4.32-.69-4.35-.63-4.32-.63-4.35-.6-4.32-.57-4.35-.57-8.67-1.05-8.7-.96-8.7-.87-8.73-.81-8.7-.72-8.73-.66-8.73-.6-8.73-.54-8.73-.48-8.76-.45-8.73-.39-8.76-.36-8.73-.3-8.76-.27-8.73-.27-8.76-.21-17.52-.39-8.73-.18-8.76-.15-8.73-.09-8.76-.09-8.73-.09-8.76-.03h-8.73l-8.76.06-8.73.06-8.76.12-8.73.15-8.73.21-8.76.24-8.73.27-8.73.36-8.73.36-8.73.45-8.73.51-8.73.54-8.73.6-8.73.69-8.73.72-8.73.75-8.7.84-8.7.9-8.73.93-8.7 1.02-8.67 1.05-8.7 1.11-8.67 1.17-8.67 1.23-8.67 1.26-8.64 1.35-8.67 1.38-8.61 1.47-8.64 1.5-8.61 1.56-8.61 1.62-8.58 1.68-8.58 1.74-8.55 1.77-8.55 1.86-8.55 1.89-8.52 1.98-8.52 2.01-8.49 2.07-8.46 2.13-8.49 2.16-8.46 2.19-8.43 2.25-8.46 2.28-8.43 2.31-8.4 2.34-8.43 2.4-8.4 2.37-8.4 2.43-16.8 4.89-16.8 4.95-16.77 4.95" stroke-width=".36"/><path d="m1361.33 627.51-13.38-10.86-6.72-5.4-6.75-5.37-6.75-5.31-6.81-5.31-6.84-5.22-3.45-2.58-3.45-2.58-3.48-2.55-3.48-2.52-3.48-2.52-3.51-2.49-3.54-2.46-3.54-2.43-3.57-2.43-3.57-2.37-3.6-2.37-3.63-2.34-3.63-2.34-3.63-2.28-3.66-2.28-3.69-2.25-3.69-2.22-3.69-2.19-3.72-2.19-3.75-2.13-3.75-2.13-3.75-2.13-3.78-2.07-3.81-2.07-3.81-2.01-3.81-2.04-3.81-1.98-3.87-1.95-3.84-1.95-3.87-1.92-3.9-1.89-3.87-1.89-3.9-1.83-3.93-1.83-3.93-1.8-3.93-1.77-3.96-1.77-3.96-1.71-3.96-1.71-3.99-1.68-3.99-1.68-4.02-1.62-3.99-1.62-4.02-1.59-4.05-1.56-4.02-1.53-4.05-1.53-4.08-1.47-4.05-1.47-4.08-1.44-4.08-1.44-4.11-1.38-4.08-1.38-4.11-1.35-4.11-1.32-4.14-1.29-4.14-1.29-4.11-1.23-4.17-1.23-4.14-1.2-4.14-1.2-4.17-1.14-4.17-1.14-4.17-1.08-4.17-1.08-4.2-1.08-4.2-1.02-4.17-.99-4.2-.99-4.23-.96-4.2-.93-4.2-.9-4.23-.9-4.23-.84-4.2-.84-4.23-.81-4.23-.78-4.26-.78-4.23-.72-4.26-.72-4.23-.69-4.26-.69-4.26-.66-4.26-.63-8.52-1.17-8.55-1.11-8.55-1.05-8.55-.96-8.58-.87-8.58-.81-8.58-.75-8.61-.69-8.61-.6-8.58-.57-8.61-.51-8.64-.45-8.61-.39-8.61-.36-8.61-.3-8.64-.27-8.61-.24-8.61-.18-8.61-.15-8.64-.12-8.61-.06-8.61-.06-8.61.03-8.61.03-8.61.09-8.64.12-8.61.15-8.61.18-8.61.24-8.61.24-8.58.3-8.61.36-8.61.36-8.61.39-8.61.45-8.61.48-8.58.51-8.61.54-8.58.6-8.61.66-8.58.69-8.58.75-8.58.81-8.58.87-8.55.93-8.58.99-8.55 1.05-8.52 1.14-8.55 1.2-8.52 1.29-8.52 1.35-8.49 1.44-4.26.75-4.23.78-4.26.78-4.23.84-4.23.84-4.2.84-4.23.9-4.2.9-4.23.93-4.2.96-4.2.99-4.17.99-4.2 1.02-4.17 1.05-4.17 1.08-4.14 1.11-4.17 1.14-4.14 1.14-4.14 1.2-4.11 1.2-4.14 1.23-4.11 1.26-4.11 1.29-4.08 1.29-4.11 1.32-4.08 1.35-8.16 2.76-8.13 2.82-8.1 2.91-8.07 2.97-8.07 3.03-8.07 3.06-8.04 3.12-8.01 3.18-8.01 3.18-8.01 3.24-15.99 6.51-15.99 6.57" stroke-width=".36"/><path d="m1360.58 627.51-13.47-11.52-6.75-5.73-6.78-5.7-6.81-5.67-6.84-5.64-6.87-5.58-6.93-5.52-3.48-2.73-3.51-2.7-3.51-2.7-3.54-2.67-3.54-2.64-3.57-2.64-3.57-2.61-3.6-2.58-3.6-2.58-3.63-2.55-3.63-2.55-3.63-2.52-7.32-4.98-7.38-4.92-7.41-4.86-7.44-4.8-7.5-4.74-3.75-2.37-3.78-2.31-3.78-2.31-3.78-2.28-3.84-2.25-3.84-2.19-3.87-2.19-3.87-2.13-3.93-2.07-3.93-2.07-3.93-2.01-3.99-1.98-3.99-1.95-3.99-1.92-4.05-1.86-4.02-1.86-4.08-1.8-4.08-1.77-4.08-1.71-4.14-1.71-4.11-1.65-4.14-1.65-4.17-1.59-4.17-1.56-4.2-1.53-4.2-1.47-4.2-1.47-4.23-1.41-4.23-1.38-4.26-1.38-4.26-1.32-4.26-1.29-4.29-1.26-4.29-1.2-4.29-1.2-4.32-1.17-4.29-1.11-4.32-1.11-4.35-1.05-4.32-1.05-4.35-.99-4.35-.96-4.35-.93-4.35-.9-4.38-.9-4.35-.84-4.38-.81-4.38-.78-4.38-.75-4.35-.72-4.41-.72-4.38-.66-4.38-.63-4.38-.63-4.41-.6-4.38-.54-4.41-.54-4.41-.54-4.41-.48-4.41-.48-4.38-.45-4.44-.42-8.82-.81-8.82-.69-8.85-.63-8.85-.57-8.85-.51-8.85-.45-8.88-.36-8.85-.36-8.88-.27-8.85-.24-8.88-.21-8.88-.15-8.85-.15-8.88-.12-8.88-.09-8.85-.06-8.88-.03-8.85-.03-8.85.03-8.88.06-8.85.09-8.85.12-8.88.15-8.85.18-8.85.21-8.85.27-8.85.3-8.85.36-8.85.39-8.85.42-8.85.48-8.82.51-8.85.57-8.85.6-8.82.69-8.85.72-8.82.81-8.82.87-8.82.96-8.79 1.02-4.41.54-4.38.57-4.41.6-4.38.6-4.38.63-4.38.66-4.38.69-4.38.69-4.38.75-4.38.75-4.35.78-4.38.81-4.35.84-4.35.87-4.35.9-4.35.93-4.35.96-4.32.99-4.35 1.05-4.29 1.05-4.32 1.11-4.29 1.17-4.26 1.17-4.29 1.26-4.23 1.29-4.23 1.32-4.23 1.38-4.2 1.44-4.17 1.5-4.14 1.56-4.14 1.59-4.11 1.68-4.08 1.71-4.08 1.8-4.02 1.86-4.02 1.92-3.96 1.98-3.96 2.07-3.93 2.1-3.87 2.19-3.87 2.25-3.81 2.31-3.78 2.37-3.78 2.43-3.72 2.49-3.66 2.52-3.66 2.61-3.6 2.64-3.57 2.73-3.54 2.76-3.48 2.79-3.45 2.88-3.42 2.91-3.36 2.97-3.33 3-3.27 3.06-3.24 3.09-3.18 3.15-3.15 3.21-3.09 3.24-3.03 3.27-3 3.3-2.94 3.36-2.91 3.39-2.82 3.45-2.79 3.45-2.76 3.51-2.67 3.54-2.64 3.57-2.58 3.6-2.55 3.63-2.52 3.63-2.52 3.66-2.49 3.66-4.92 7.35" stroke-width=".36"/><path d="m1356.56 627.51-28.29-20.55-14.16-10.23-14.19-10.2-7.14-5.07-7.11-5.04-7.17-5.04-7.17-5.01-7.2-4.95-7.26-4.92-3.63-2.4-3.66-2.4-3.66-2.4-3.69-2.34-3.69-2.31-3.72-2.31-3.72-2.25-3.78-2.25-3.75-2.19-3.81-2.16-3.81-2.13-3.84-2.1-3.84-2.1-3.84-2.07-7.71-4.08-15.51-8.1-7.77-4.02-3.9-1.98-3.9-1.98-3.9-1.92-3.93-1.92-3.96-1.86-3.96-1.83-3.99-1.77-4.02-1.74-4.02-1.71-4.05-1.65-4.05-1.62-4.08-1.59-4.08-1.53-4.11-1.5-4.14-1.47-4.14-1.44-4.14-1.41-4.17-1.35-4.17-1.32-4.17-1.32-4.2-1.26-4.23-1.23-4.2-1.2-4.23-1.2-4.23-1.14-4.23-1.11-4.26-1.11-4.23-1.08-4.26-1.02-4.26-1.02-4.26-1.02-4.29-.96-4.26-.96-4.26-.93-4.29-.9-4.26-.9-4.29-.84-4.29-.84-4.29-.81-4.32-.75-4.29-.75-4.32-.72-4.29-.66-4.32-.66-4.32-.63-4.35-.63-4.32-.57-4.32-.54-4.35-.54-4.35-.51-4.35-.48-4.32-.48-4.38-.42-4.35-.42-8.7-.78-8.73-.72-8.73-.6-8.76-.57-8.73-.48-8.76-.45-8.76-.39-8.73-.3-8.76-.3-8.76-.24-8.76-.21-8.73-.15-8.76-.15-8.73-.09-8.73-.06-8.76-.03h-8.73l-8.73.06-8.73.09-8.76.12-8.73.18-8.73.24-8.73.27-8.76.3-8.73.39-8.73.42-8.73.48-8.73.54-8.7.63-8.7.66-8.7.72-8.67.81-4.35.45-4.32.45-4.35.48-4.32.51-4.35.51-4.32.57-4.32.57-4.35.6-4.32.63-4.32.66-4.32.69-4.35.72-4.32.78-4.32.78-4.32.81-4.35.84-4.32.9-4.32.93-4.32.96-4.32.99-4.32 1.02-4.29 1.08-4.32 1.11-4.26 1.17-4.29 1.2-4.26 1.23-4.23 1.29-4.23 1.32-4.23 1.38-4.2 1.44-4.17 1.44-4.14 1.53-4.14 1.56-4.11 1.62-4.08 1.65-4.05 1.71-4.02 1.77-4.02 1.83-3.96 1.89-3.93 1.92-3.9 1.98-3.87 2.04-3.84 2.1-3.78 2.16-3.75 2.22-3.72 2.28-3.66 2.34-3.63 2.4-3.6 2.46-3.54 2.52-3.48 2.58-3.45 2.64-3.42 2.7-3.36 2.76-3.36 2.79-3.3 2.85-3.27 2.91-3.24 2.91-3.21 2.97-3.21 3-3.15 3.03-3.18 3.03-3.12 3.06-3.12 3.09-6.24 6.21-6.18 6.24-6.18 6.24-6.21 6.18-6.21 6.18-6.24 6.15-6.27 6.09-6.24 6.09-12.57 12.15-12.57 12.09M333.11 627.51l-1.41-7.23-.69-3.63-.69-3.63-.63-3.63-.63-3.63-.57-3.63-.57-3.63-1.05-7.32-1.05-7.29-1.05-7.29-.57-3.66-.57-3.63-.6-3.63-.66-3.63-.66-3.63-.75-3.6-.78-3.6-.87-3.6-.45-1.8-.45-1.77-.48-1.8-.51-1.77-.54-1.8-.54-1.77-.57-1.77-.57-1.77-.63-1.77-.63-1.74-.66-1.77-.69-1.74-.69-1.71-.75-1.71-.72-1.68-.78-1.65-.78-1.59-.39-.81-.42-.78-.45-.78-.27-.36-.27-.39-.27-.36-.33-.39-.33-.36-.39-.36-.39-.33-.42-.33-.18-.12-.21-.12-.21-.09-.18-.06-.18-.06h-.18l-.15.03-.15.06-.15.09-.15.09-.12.15-.09.15-.12.18-.09.21-.09.24-.09.24-.15.51-.12.57-.12.6-.12.63-.21 1.23-.18 1.2-.18 1.2-.18 1.17-.18 1.14-.18 1.11-.15 1.11-.15 1.08-.12 1.05-.15 1.05-.12 1.02-.12.99-.12.99-.21 1.92-.18 1.86-.15 1.8-.15 1.77-.12 1.71-.12 1.68-.09 1.65-.06 1.62-.09 1.62-.06 1.59-.09 3.15-.06 3.18-.03 1.59-.03 1.62-.03 1.65v1.65l-.06 3.36-.06 3.42-.03 3.51-.03 3.51-.03 3.6-.03 3.63-.03 3.69-.03 3.72-.03 3.75-.03 3.81v3.81l-.03 3.84v3.87l-.03 3.87-.03 7.83-.03 7.83M455.15 625.47l-85.68 2.04" stroke-width=".36"/><path d="m1351.7 627.51-28.35-17.88-14.22-8.94-14.19-8.91-14.25-8.88-14.25-8.85-7.17-4.38-7.14-4.38-7.2-4.32-7.2-4.29-3.63-2.1-3.63-2.07-3.66-2.07-3.66-2.04-3.69-2.01-3.69-1.98-3.69-1.98-3.72-1.95-3.72-1.92-3.72-1.89-3.75-1.89-3.75-1.86-7.56-3.69-7.56-3.6-7.62-3.57-7.62-3.51-7.68-3.45-7.68-3.42-7.71-3.36-7.71-3.33-7.77-3.24-7.8-3.18-3.9-1.56-3.9-1.53-3.93-1.53-3.9-1.5-3.96-1.47-3.93-1.47-3.93-1.41-3.96-1.41-3.96-1.38-3.99-1.35-3.96-1.32-3.99-1.29-4.02-1.29-3.99-1.23-4.02-1.2-4.02-1.17-4.02-1.14-4.05-1.11-4.05-1.08-4.05-1.02-4.08-1.02-4.08-.96-4.08-.93-4.11-.9-4.08-.87-4.11-.84-4.11-.81-4.14-.78-4.11-.75-4.14-.75-4.14-.69-4.14-.69-4.17-.66-4.14-.63-8.31-1.23-8.31-1.14-8.34-1.05-8.34-1.02-8.34-.96-8.34-.9-8.34-.84-8.37-.78-8.34-.72-8.37-.69-8.34-.6-8.37-.57-8.4-.51-8.37-.42-8.37-.39-8.4-.33-8.4-.27-8.4-.21-8.4-.15-8.4-.09-8.4-.03-8.4.06-8.4.12-8.4.18-8.4.27-8.4.36-8.4.42-4.17.24-4.2.24-4.2.3-4.17.3-4.2.33-4.17.33-4.17.36-4.2.39-4.17.42-4.17.45-4.17.45-4.17.48-4.17.51-4.17.51-4.14.54-4.17.6-4.14.6-4.14.63-4.14.72-4.11.75-4.11.84-4.08.9-4.08.93-4.05.99-4.05 1.05-4.05 1.11-4.02 1.14-4.02 1.2-4.02 1.23-3.99 1.29-3.99 1.29-3.99 1.35-3.96 1.38-3.96 1.41-3.96 1.44-3.96 1.44-7.89 2.97-7.89 3.06-7.83 3.09-7.86 3.12-7.83 3.12-7.83 3.21-3.87 1.62-3.87 1.65-3.87 1.68-3.81 1.71-3.81 1.74-3.78 1.8-3.75 1.86-3.72 1.92-3.69 1.98-3.66 2.04-1.8 1.02-1.8 1.08-1.77 1.08-1.77 1.11-3.54 2.22-3.48 2.34-3.42 2.37-3.42 2.43-3.39 2.46-3.36 2.52-3.33 2.55-3.33 2.58-3.27 2.64-3.3 2.64-6.51 5.31-12.99 10.71-6.51 5.31-3.27 2.64-3.27 2.61-3.3 2.58-3.3 2.58-3.33 2.55-3.33 2.52-3.36 2.52-3.39 2.49-3.36 2.46-3.42 2.46-6.84 4.83-6.87 4.8-6.9 4.77-6.96 4.71-6.96 4.65-7.02 4.65-14.01 9.27" stroke-width=".36"/><path d="m1345.52 627.51-28.41-13.83-28.41-13.83-28.38-13.92-14.19-6.96-14.16-6.99-28.35-14.04-14.19-6.96-7.08-3.48-7.14-3.45-7.11-3.39-7.14-3.39-7.17-3.36-7.17-3.33-7.17-3.27-7.23-3.21-7.23-3.18-7.26-3.09-7.29-3.06-7.35-3-7.35-2.91-3.66-1.44-3.72-1.41-3.69-1.38-3.72-1.38-3.69-1.35-3.72-1.35-3.75-1.29-3.72-1.29-3.75-1.26-3.75-1.26-3.75-1.23-3.78-1.17-3.78-1.2-3.78-1.14-3.78-1.11-3.78-1.11-3.81-1.05-3.81-1.05-3.81-1.02-3.81-.99-3.84-.96-3.84-.96-3.84-.9-3.84-.9-3.84-.87-3.87-.84-3.87-.84-3.87-.78-3.87-.78-3.87-.75-3.9-.72-3.87-.72-3.9-.66-3.9-.66-3.9-.66-3.93-.6-3.9-.6-3.93-.57-3.9-.54-3.93-.54-3.93-.51-3.93-.48-3.93-.48-3.96-.45-3.93-.42-3.96-.39-3.93-.39-3.96-.36-3.96-.36-3.96-.33-7.92-.6-7.92-.51-7.95-.45-7.95-.39-7.95-.33-7.95-.24-7.98-.18-7.95-.09-7.98-.06-3.99.03h-3.96l-3.99.06-3.99.06-3.96.09-3.99.12-3.96.12-3.99.15-3.96.18-3.99.21-3.96.21-3.96.27-3.96.27-3.96.3-3.96.3-3.93.36-3.96.39-3.93.39-3.93.45-3.93.45-3.93.51-3.93.51-3.9.57-3.93.57-3.9.63-3.9.63-3.87.69-3.9.72-3.87.75-3.87.78-3.87.81-3.84.84-3.87.9-3.84.93-3.81.96-3.84.99-3.81 1.02-3.81 1.08-3.78 1.11-3.78 1.14-3.78 1.2-3.78 1.23-3.75 1.26-3.75 1.29-3.72 1.32-3.72 1.38-3.69 1.38-3.69 1.44-3.69 1.47-3.66 1.53-3.66 1.53-3.63 1.56-3.63 1.62-3.6 1.65-3.6 1.65-3.57 1.71-3.57 1.74-3.54 1.77-3.51 1.8-3.51 1.83-3.48 1.89-3.48 1.89-3.45 1.92-3.42 1.95-3.42 1.98-3.42 1.98-3.39 2.04-3.39 2.04-3.36 2.07-3.36 2.07-6.66 4.23-6.66 4.23-6.66 4.32-6.6 4.29-13.23 8.67-6.66 4.29-6.63 4.29-6.69 4.23-6.72 4.17-3.39 2.04-3.36 2.04-3.42 2.04-3.39 1.98-3.42 1.98-3.45 1.95-3.45 1.95-3.45 1.89-3.48 1.89-3.48 1.86-3.51 1.8-3.54 1.8-3.51 1.74-3.57 1.74-3.54 1.71-3.6 1.68-3.57 1.65-3.6 1.65-3.6 1.59-3.63 1.62-7.23 3.15-7.29 3.09-14.58 6.15" stroke-width=".36"/><path d="m1331.75 627.51-13.74-3.6-13.74-3.63-13.71-3.69-6.84-1.86-6.84-1.89-6.81-1.92-6.84-1.92-6.78-1.98-6.81-2.01-6.78-2.04-6.78-2.07-6.75-2.13-6.72-2.16-6.72-2.22-6.72-2.25-6.69-2.31-6.69-2.31-6.66-2.34-6.66-2.4-13.32-4.8-26.61-9.72-13.29-4.86-6.69-2.4-6.66-2.4-6.69-2.37-6.69-2.34-6.72-2.34-6.72-2.28-6.72-2.25-6.75-2.22-6.78-2.16-6.81-2.13-6.81-2.07-6.84-2.01-6.87-1.95-6.87-1.89-3.45-.9-3.48-.9-3.45-.9-3.48-.87-3.48-.84-3.48-.84-3.51-.81-3.48-.78-3.51-.78-3.51-.75-3.51-.72-3.51-.72-3.51-.69-3.54-.66-3.51-.66-3.54-.63-3.54-.6-3.51-.57-3.54-.57-3.54-.54-3.57-.51-3.54-.48-3.54-.48-3.54-.42-3.57-.42-3.54-.39-3.57-.39-3.54-.33-3.57-.3-3.54-.3-3.57-.27-3.54-.24-3.57-.21-3.54-.18-3.57-.15-3.54-.12-3.57-.09-3.54-.09-3.54-.03H889.94l-3.54.06-3.54.09-3.54.09-3.54.15-3.54.18-3.54.21-3.51.24-3.54.27-3.51.3-3.54.33-3.51.36-3.51.39-3.51.45-3.48.45-3.51.51-3.48.54-3.51.54-3.48.6-3.48.6-3.48.66-3.45.66-3.48.72-3.45.72-3.48.75-3.45.78-3.45.78-3.45.84-3.45.84-3.45.87-3.42.87-3.45.9-3.42.93-3.45.96-3.42.96-3.42.99-6.81 2.01-6.84 2.07-6.81 2.13-6.78 2.19-6.78 2.22-6.78 2.28-6.75 2.31-6.75 2.31-6.72 2.37-6.72 2.37-13.41 4.77-13.38 4.77-6.69 2.37-6.69 2.37-6.69 2.31-6.69 2.28-6.72 2.25-6.72 2.19-6.75 2.16-6.78 2.13-6.75 2.07-6.81 2.04-6.78 2.01-6.81 1.95-6.84 1.95-6.81 1.89-6.84 1.89-6.84 1.86-6.87 1.83-6.87 1.83-6.84 1.77-6.9 1.8-13.74 3.48-13.77 3.48-27.54 6.84-13.77 3.42-13.77 3.45" stroke-width=".36"/></g><g data-name="grammes_axones"><path stroke-width=".36" stroke-linecap="round" stroke-linejoin="round" fill="none" stroke="#000" d="M1227.53 641.7V424.05M1227.53 392.22v-257.4M1039.19 641.7V424.05M1039.19 392.22v-257.4M850.88 646.29V424.05M850.88 392.22v-257.4M687.35 641.7V424.05M687.35 392.22v-257.4M461.33 646.29V424.05M461.33 392.22v-257.4M1396.13 632.79h-12.21"/><path d="m1379.63 632.79-.03-.09-.06-.06h-.12l-.06.06-.03.09.03.09.06.06h.12l.06-.06.03-.09z"/><path fill="none" d="m1379.63 632.79-.03-.09-.06-.06h-.12l-.06.06-.03.09.03.09.06.06h.12l.06-.06.03-.09z"/><path stroke-width=".36" stroke-linecap="round" stroke-linejoin="round" fill="none" stroke="#000" d="M1375.01 632.79h-8.91"/><path d="m1361.78 632.79-.03-.09-.06-.06h-.12l-.06.06-.03.09.03.09.06.06h.12l.06-.06.03-.09z"/><path fill="none" d="m1361.78 632.79-.03-.09-.06-.06h-.12l-.06.06-.03.09.03.09.06.06h.12l.06-.06.03-.09z"/><path stroke-width=".36" stroke-linecap="round" stroke-linejoin="round" fill="none" stroke="#000" d="M1357.19 632.79h-8.91"/><path d="m1343.96 632.79-.03-.09-.06-.06h-.12l-.06.06-.03.09.03.09.06.06h.12l.06-.06.03-.09z"/><path fill="none" d="m1343.96 632.79-.03-.09-.06-.06h-.12l-.06.06-.03.09.03.09.06.06h.12l.06-.06.03-.09z"/><path stroke-width=".36" stroke-linecap="round" stroke-linejoin="round" fill="none" stroke="#000" d="M1339.37 632.79h-8.91"/><path d="m1326.14 632.79-.03-.09-.06-.06h-.12l-.06.06-.03.09.03.09.06.06h.12l.06-.06.03-.09z"/><path fill="none" d="m1326.14 632.79-.03-.09-.06-.06h-.12l-.06.06-.03.09.03.09.06.06h.12l.06-.06.03-.09z"/><path stroke-width=".36" stroke-linecap="round" stroke-linejoin="round" fill="none" stroke="#000" d="M1321.52 632.79h-8.91"/><path d="m1308.32 632.79-.03-.09-.06-.06h-.12l-.06.06-.03.09.03.09.06.06h.12l.06-.06.03-.09z"/><path fill="none" d="m1308.32 632.79-.03-.09-.06-.06h-.12l-.06.06-.03.09.03.09.06.06h.12l.06-.06.03-.09z"/><path stroke-width=".36" stroke-linecap="round" stroke-linejoin="round" fill="none" stroke="#000" d="M1303.7 632.79h-8.91"/><path d="m1290.47 632.79-.03-.09-.06-.06h-.12l-.06.06-.03.09.03.09.06.06h.12l.06-.06.03-.09z"/><path fill="none" d="m1290.47 632.79-.03-.09-.06-.06h-.12l-.06.06-.03.09.03.09.06.06h.12l.06-.06.03-.09z"/><path stroke-width=".36" stroke-linecap="round" stroke-linejoin="round" fill="none" stroke="#000" d="M1285.88 632.79h-8.91"/><path d="m1272.65 632.79-.03-.09-.06-.06h-.12l-.06.06-.03.09.03.09.06.06h.12l.06-.06.03-.09z"/><path fill="none" d="m1272.65 632.79-.03-.09-.06-.06h-.12l-.06.06-.03.09.03.09.06.06h.12l.06-.06.03-.09z"/><path stroke-width=".36" stroke-linecap="round" stroke-linejoin="round" fill="none" stroke="#000" d="M1268.06 632.79h-8.91"/><path d="m1254.83 632.79-.03-.09-.06-.06h-.12l-.06.06-.03.09.03.09.06.06h.12l.06-.06.03-.09z"/><path fill="none" d="m1254.83 632.79-.03-.09-.06-.06h-.12l-.06.06-.03.09.03.09.06.06h.12l.06-.06.03-.09z"/><path stroke-width=".36" stroke-linecap="round" stroke-linejoin="round" fill="none" stroke="#000" d="M1250.21 632.79h-8.91"/><path d="m1237.01 632.79-.03-.09-.06-.06h-.12l-.06.06-.03.09.03.09.06.06h.12l.06-.06.03-.09z"/><path fill="none" d="m1237.01 632.79-.03-.09-.06-.06h-.12l-.06.06-.03.09.03.09.06.06h.12l.06-.06.03-.09z"/><path stroke-width=".36" stroke-linecap="round" stroke-linejoin="round" fill="none" stroke="#000" d="M1232.39 632.79h-8.91"/><path d="m1219.19 632.79-.03-.09-.06-.06h-.12l-.06.06-.03.09.03.09.06.06h.12l.06-.06.03-.09z"/><path fill="none" d="m1219.19 632.79-.03-.09-.06-.06h-.12l-.06.06-.03.09.03.09.06.06h.12l.06-.06.03-.09z"/><path stroke-width=".36" stroke-linecap="round" stroke-linejoin="round" fill="none" stroke="#000" d="M1214.57 632.79h-8.91"/><path d="m1201.34 632.79-.03-.09-.06-.06h-.12l-.06.06-.03.09.03.09.06.06h.12l.06-.06.03-.09z"/><path fill="none" d="m1201.34 632.79-.03-.09-.06-.06h-.12l-.06.06-.03.09.03.09.06.06h.12l.06-.06.03-.09z"/><path stroke-width=".36" stroke-linecap="round" stroke-linejoin="round" fill="none" stroke="#000" d="M1196.75 632.79h-8.91"/><path d="m1183.52 632.79-.03-.09-.06-.06h-.12l-.06.06-.03.09.03.09.06.06h.12l.06-.06.03-.09z"/><path fill="none" d="m1183.52 632.79-.03-.09-.06-.06h-.12l-.06.06-.03.09.03.09.06.06h.12l.06-.06.03-.09z"/><path stroke-width=".36" stroke-linecap="round" stroke-linejoin="round" fill="none" stroke="#000" d="M1178.93 632.79h-8.94"/><path d="m1165.7 632.79-.03-.09-.06-.06h-.12l-.06.06-.03.09.03.09.06.06h.12l.06-.06.03-.09z"/><path fill="none" d="m1165.7 632.79-.03-.09-.06-.06h-.12l-.06.06-.03.09.03.09.06.06h.12l.06-.06.03-.09z"/><path stroke-width=".36" stroke-linecap="round" stroke-linejoin="round" fill="none" stroke="#000" d="M1161.08 632.79h-8.91"/><path d="m1147.88 632.79-.03-.09-.06-.06h-.12l-.06.06-.03.09.03.09.06.06h.12l.06-.06.03-.09z"/><path fill="none" d="m1147.88 632.79-.03-.09-.06-.06h-.12l-.06.06-.03.09.03.09.06.06h.12l.06-.06.03-.09z"/><path stroke-width=".36" stroke-linecap="round" stroke-linejoin="round" fill="none" stroke="#000" d="M1143.26 632.79h-8.91"/><path d="m1130.03 632.79-.03-.09-.06-.06h-.12l-.06.06-.03.09.03.09.06.06h.12l.06-.06.03-.09z"/><path fill="none" d="m1130.03 632.79-.03-.09-.06-.06h-.12l-.06.06-.03.09.03.09.06.06h.12l.06-.06.03-.09z"/><path stroke-width=".36" stroke-linecap="round" stroke-linejoin="round" fill="none" stroke="#000" d="M1125.44 632.79h-8.91"/><path d="m1112.21 632.79-.03-.09-.06-.06h-.12l-.06.06-.03.09.03.09.06.06h.12l.06-.06.03-.09z"/><path fill="none" d="m1112.21 632.79-.03-.09-.06-.06h-.12l-.06.06-.03.09.03.09.06.06h.12l.06-.06.03-.09z"/><path stroke-width=".36" stroke-linecap="round" stroke-linejoin="round" fill="none" stroke="#000" d="M1107.62 632.79h-8.91"/><path d="m1094.39 632.79-.03-.09-.06-.06h-.12l-.06.06-.03.09.03.09.06.06h.12l.06-.06.03-.09z"/><path fill="none" d="m1094.39 632.79-.03-.09-.06-.06h-.12l-.06.06-.03.09.03.09.06.06h.12l.06-.06.03-.09z"/><path stroke-width=".36" stroke-linecap="round" stroke-linejoin="round" fill="none" stroke="#000" d="M1089.77 632.79h-8.91"/><path d="m1076.57 632.79-.03-.09-.06-.06h-.12l-.06.06-.03.09.03.09.06.06h.12l.06-.06.03-.09z"/><path fill="none" d="m1076.57 632.79-.03-.09-.06-.06h-.12l-.06.06-.03.09.03.09.06.06h.12l.06-.06.03-.09z"/><path stroke-width=".36" stroke-linecap="round" stroke-linejoin="round" fill="none" stroke="#000" d="M1071.95 632.79h-8.91"/><path d="m1058.75 632.79-.03-.09-.06-.06h-.12l-.06.06-.03.09.03.09.06.06h.12l.06-.06.03-.09z"/><path fill="none" d="m1058.75 632.79-.03-.09-.06-.06h-.12l-.06.06-.03.09.03.09.06.06h.12l.06-.06.03-.09z"/><path stroke-width=".36" stroke-linecap="round" stroke-linejoin="round" fill="none" stroke="#000" d="M1054.13 632.79h-8.91"/><path d="m1040.9 632.79-.03-.09-.06-.06h-.12l-.06.06-.03.09.03.09.06.06h.12l.06-.06.03-.09z"/><path fill="none" d="m1040.9 632.79-.03-.09-.06-.06h-.12l-.06.06-.03.09.03.09.06.06h.12l.06-.06.03-.09z"/><path stroke-width=".36" stroke-linecap="round" stroke-linejoin="round" fill="none" stroke="#000" d="M1036.31 632.79h-8.91"/><path d="m1023.08 632.79-.03-.09-.06-.06h-.12l-.06.06-.03.09.03.09.06.06h.12l.06-.06.03-.09z"/><path fill="none" d="m1023.08 632.79-.03-.09-.06-.06h-.12l-.06.06-.03.09.03.09.06.06h.12l.06-.06.03-.09z"/><path stroke-width=".36" stroke-linecap="round" stroke-linejoin="round" fill="none" stroke="#000" d="M1018.49 632.79h-8.94"/><path d="m1005.26 632.79-.03-.09-.06-.06h-.12l-.06.06-.03.09.03.09.06.06h.12l.06-.06.03-.09z"/><path fill="none" d="m1005.26 632.79-.03-.09-.06-.06h-.12l-.06.06-.03.09.03.09.06.06h.12l.06-.06.03-.09z"/><path stroke-width=".36" stroke-linecap="round" stroke-linejoin="round" fill="none" stroke="#000" d="M1000.64 632.79h-8.91"/><path d="m987.44 632.79-.03-.09-.06-.06h-.12l-.06.06-.03.09.03.09.06.06h.12l.06-.06.03-.09z"/><path fill="none" d="m987.44 632.79-.03-.09-.06-.06h-.12l-.06.06-.03.09.03.09.06.06h.12l.06-.06.03-.09z"/><path stroke-width=".36" stroke-linecap="round" stroke-linejoin="round" fill="none" stroke="#000" d="M982.82 632.79h-8.91"/><path d="m969.59 632.79-.03-.09-.06-.06h-.12l-.06.06-.03.09.03.09.06.06h.12l.06-.06.03-.09z"/><path fill="none" d="m969.59 632.79-.03-.09-.06-.06h-.12l-.06.06-.03.09.03.09.06.06h.12l.06-.06.03-.09z"/><path stroke-width=".36" stroke-linecap="round" stroke-linejoin="round" fill="none" stroke="#000" d="M965 632.79h-8.91"/><path d="m951.77 632.79-.03-.09-.06-.06h-.12l-.06.06-.03.09.03.09.06.06h.12l.06-.06.03-.09z"/><path fill="none" d="m951.77 632.79-.03-.09-.06-.06h-.12l-.06.06-.03.09.03.09.06.06h.12l.06-.06.03-.09z"/><path stroke-width=".36" stroke-linecap="round" stroke-linejoin="round" fill="none" stroke="#000" d="M947.18 632.79h-8.94"/><path d="m933.95 632.79-.03-.09-.06-.06h-.12l-.06.06-.03.09.03.09.06.06h.12l.06-.06.03-.09z"/><path fill="none" d="m933.95 632.79-.03-.09-.06-.06h-.12l-.06.06-.03.09.03.09.06.06h.12l.06-.06.03-.09z"/><path stroke-width=".36" stroke-linecap="round" stroke-linejoin="round" fill="none" stroke="#000" d="M929.33 632.79h-8.91"/><path d="m916.13 632.79-.03-.09-.06-.06h-.12l-.06.06-.03.09.03.09.06.06h.12l.06-.06.03-.09z"/><path fill="none" d="m916.13 632.79-.03-.09-.06-.06h-.12l-.06.06-.03.09.03.09.06.06h.12l.06-.06.03-.09z"/><path stroke-width=".36" stroke-linecap="round" stroke-linejoin="round" fill="none" stroke="#000" d="M911.51 632.79h-8.91"/><path d="m898.28 632.79-.03-.09-.06-.06h-.12l-.06.06-.03.09.03.09.06.06h.12l.06-.06.03-.09z"/><path fill="none" d="m898.28 632.79-.03-.09-.06-.06h-.12l-.06.06-.03.09.03.09.06.06h.12l.06-.06.03-.09z"/><path stroke-width=".36" stroke-linecap="round" stroke-linejoin="round" fill="none" stroke="#000" d="M893.69 632.79h-8.91"/><path d="m880.46 632.79-.03-.09-.06-.06h-.12l-.06.06-.03.09.03.09.06.06h.12l.06-.06.03-.09z"/><path fill="none" d="m880.46 632.79-.03-.09-.06-.06h-.12l-.06.06-.03.09.03.09.06.06h.12l.06-.06.03-.09z"/><path stroke-width=".36" stroke-linecap="round" stroke-linejoin="round" fill="none" stroke="#000" d="M875.87 632.79h-8.91"/><path d="m862.64 632.79-.03-.09-.06-.06h-.12l-.06.06-.03.09.03.09.06.06h.12l.06-.06.03-.09z"/><path fill="none" d="m862.64 632.79-.03-.09-.06-.06h-.12l-.06.06-.03.09.03.09.06.06h.12l.06-.06.03-.09z"/><path stroke-width=".36" stroke-linecap="round" stroke-linejoin="round" fill="none" stroke="#000" d="M858.02 632.79h-8.91"/><path d="m844.82 632.79-.03-.09-.06-.06h-.12l-.06.06-.03.09.03.09.06.06h.12l.06-.06.03-.09z"/><path fill="none" d="m844.82 632.79-.03-.09-.06-.06h-.12l-.06.06-.03.09.03.09.06.06h.12l.06-.06.03-.09z"/><path stroke-width=".36" stroke-linecap="round" stroke-linejoin="round" fill="none" stroke="#000" d="M840.2 632.79h-8.91"/><path d="m827 632.79-.03-.09-.06-.06h-.12l-.06.06-.03.09.03.09.06.06h.12l.06-.06.03-.09z"/><path fill="none" d="m827 632.79-.03-.09-.06-.06h-.12l-.06.06-.03.09.03.09.06.06h.12l.06-.06.03-.09z"/><path stroke-width=".36" stroke-linecap="round" stroke-linejoin="round" fill="none" stroke="#000" d="M822.38 632.79h-8.91"/><path d="m809.15 632.79-.03-.09-.06-.06h-.12l-.06.06-.03.09.03.09.06.06h.12l.06-.06.03-.09z"/><path fill="none" d="m809.15 632.79-.03-.09-.06-.06h-.12l-.06.06-.03.09.03.09.06.06h.12l.06-.06.03-.09z"/><path stroke-width=".36" stroke-linecap="round" stroke-linejoin="round" fill="none" stroke="#000" d="M804.56 632.79h-8.91"/><path d="m791.33 632.79-.03-.09-.06-.06h-.12l-.06.06-.03.09.03.09.06.06h.12l.06-.06.03-.09z"/><path fill="none" d="m791.33 632.79-.03-.09-.06-.06h-.12l-.06.06-.03.09.03.09.06.06h.12l.06-.06.03-.09z"/><path stroke-width=".36" stroke-linecap="round" stroke-linejoin="round" fill="none" stroke="#000" d="M786.74 632.79h-8.94"/><path d="m773.51 632.79-.03-.09-.06-.06h-.12l-.06.06-.03.09.03.09.06.06h.12l.06-.06.03-.09z"/><path fill="none" d="m773.51 632.79-.03-.09-.06-.06h-.12l-.06.06-.03.09.03.09.06.06h.12l.06-.06.03-.09z"/><path stroke-width=".36" stroke-linecap="round" stroke-linejoin="round" fill="none" stroke="#000" d="M768.89 632.79h-8.91"/><path d="m755.69 632.79-.03-.09-.06-.06h-.12l-.06.06-.03.09.03.09.06.06h.12l.06-.06.03-.09z"/><path fill="none" d="m755.69 632.79-.03-.09-.06-.06h-.12l-.06.06-.03.09.03.09.06.06h.12l.06-.06.03-.09z"/><path stroke-width=".36" stroke-linecap="round" stroke-linejoin="round" fill="none" stroke="#000" d="M751.07 632.79h-8.91"/><path d="m737.84 632.79-.03-.09-.06-.06h-.12l-.06.06-.03.09.03.09.06.06h.12l.06-.06.03-.09z"/><path fill="none" d="m737.84 632.79-.03-.09-.06-.06h-.12l-.06.06-.03.09.03.09.06.06h.12l.06-.06.03-.09z"/><path stroke-width=".36" stroke-linecap="round" stroke-linejoin="round" fill="none" stroke="#000" d="M733.25 632.79h-8.91"/><path d="m720.02 632.79-.03-.09-.06-.06h-.12l-.06.06-.03.09.03.09.06.06h.12l.06-.06.03-.09z"/><path fill="none" d="m720.02 632.79-.03-.09-.06-.06h-.12l-.06.06-.03.09.03.09.06.06h.12l.06-.06.03-.09z"/><path stroke-width=".36" stroke-linecap="round" stroke-linejoin="round" fill="none" stroke="#000" d="M715.43 632.79h-8.91"/><path d="m702.2 632.79-.03-.09-.06-.06h-.12l-.06.06-.03.09.03.09.06.06h.12l.06-.06.03-.09z"/><path fill="none" d="m702.2 632.79-.03-.09-.06-.06h-.12l-.06.06-.03.09.03.09.06.06h.12l.06-.06.03-.09z"/><path stroke-width=".36" stroke-linecap="round" stroke-linejoin="round" fill="none" stroke="#000" d="M697.58 632.79h-8.91"/><path d="m684.38 632.79-.03-.09-.06-.06h-.12l-.06.06-.03.09.03.09.06.06h.12l.06-.06.03-.09z"/><path fill="none" d="m684.38 632.79-.03-.09-.06-.06h-.12l-.06.06-.03.09.03.09.06.06h.12l.06-.06.03-.09z"/><path stroke-width=".36" stroke-linecap="round" stroke-linejoin="round" fill="none" stroke="#000" d="M679.76 632.79h-8.91"/><path d="m666.56 632.79-.03-.09-.06-.06h-.12l-.06.06-.03.09.03.09.06.06h.12l.06-.06.03-.09z"/><path fill="none" d="m666.56 632.79-.03-.09-.06-.06h-.12l-.06.06-.03.09.03.09.06.06h.12l.06-.06.03-.09z"/><path stroke-width=".36" stroke-linecap="round" stroke-linejoin="round" fill="none" stroke="#000" d="M661.94 632.79h-8.91"/><path d="m648.71 632.79-.03-.09-.06-.06h-.12l-.06.06-.03.09.03.09.06.06h.12l.06-.06.03-.09z"/><path fill="none" d="m648.71 632.79-.03-.09-.06-.06h-.12l-.06.06-.03.09.03.09.06.06h.12l.06-.06.03-.09z"/><path stroke-width=".36" stroke-linecap="round" stroke-linejoin="round" fill="none" stroke="#000" d="M644.12 632.79h-8.91"/><path d="m630.89 632.79-.03-.09-.06-.06h-.12l-.06.06-.03.09.03.09.06.06h.12l.06-.06.03-.09z"/><path fill="none" d="m630.89 632.79-.03-.09-.06-.06h-.12l-.06.06-.03.09.03.09.06.06h.12l.06-.06.03-.09z"/><path stroke-width=".36" stroke-linecap="round" stroke-linejoin="round" fill="none" stroke="#000" d="M626.3 632.79h-8.94"/><path d="m613.07 632.79-.03-.09-.06-.06h-.12l-.06.06-.03.09.03.09.06.06h.12l.06-.06.03-.09z"/><path fill="none" d="m613.07 632.79-.03-.09-.06-.06h-.12l-.06.06-.03.09.03.09.06.06h.12l.06-.06.03-.09z"/><path stroke-width=".36" stroke-linecap="round" stroke-linejoin="round" fill="none" stroke="#000" d="M608.45 632.79h-8.91"/><path d="m595.25 632.79-.03-.09-.06-.06h-.12l-.06.06-.03.09.03.09.06.06h.12l.06-.06.03-.09z"/><path fill="none" d="m595.25 632.79-.03-.09-.06-.06h-.12l-.06.06-.03.09.03.09.06.06h.12l.06-.06.03-.09z"/><path stroke-width=".36" stroke-linecap="round" stroke-linejoin="round" fill="none" stroke="#000" d="M590.63 632.79h-8.91"/><path d="m577.4 632.79-.03-.09-.06-.06h-.12l-.06.06-.03.09.03.09.06.06h.12l.06-.06.03-.09z"/><path fill="none" d="m577.4 632.79-.03-.09-.06-.06h-.12l-.06.06-.03.09.03.09.06.06h.12l.06-.06.03-.09z"/><path stroke-width=".36" stroke-linecap="round" stroke-linejoin="round" fill="none" stroke="#000" d="M572.81 632.79h-8.91"/><path d="m559.58 632.79-.03-.09-.06-.06h-.12l-.06.06-.03.09.03.09.06.06h.12l.06-.06.03-.09z"/><path fill="none" d="m559.58 632.79-.03-.09-.06-.06h-.12l-.06.06-.03.09.03.09.06.06h.12l.06-.06.03-.09z"/><path stroke-width=".36" stroke-linecap="round" stroke-linejoin="round" fill="none" stroke="#000" d="M554.99 632.79h-8.94"/><path d="m541.76 632.79-.03-.09-.06-.06h-.12l-.06.06-.03.09.03.09.06.06h.12l.06-.06.03-.09z"/><path fill="none" d="m541.76 632.79-.03-.09-.06-.06h-.12l-.06.06-.03.09.03.09.06.06h.12l.06-.06.03-.09z"/><path stroke-width=".36" stroke-linecap="round" stroke-linejoin="round" fill="none" stroke="#000" d="M537.14 632.79h-8.91"/><path d="m523.94 632.79-.03-.09-.06-.06h-.12l-.06.06-.03.09.03.09.06.06h.12l.06-.06.03-.09z"/><path fill="none" d="m523.94 632.79-.03-.09-.06-.06h-.12l-.06.06-.03.09.03.09.06.06h.12l.06-.06.03-.09z"/><path stroke-width=".36" stroke-linecap="round" stroke-linejoin="round" fill="none" stroke="#000" d="M519.32 632.79h-8.91"/><path d="m506.09 632.79-.03-.09-.06-.06h-.12l-.06.06-.03.09.03.09.06.06h.12l.06-.06.03-.09z"/><path fill="none" d="m506.09 632.79-.03-.09-.06-.06h-.12l-.06.06-.03.09.03.09.06.06h.12l.06-.06.03-.09z"/><path stroke-width=".36" stroke-linecap="round" stroke-linejoin="round" fill="none" stroke="#000" d="M501.5 632.79h-8.91"/><path d="m488.27 632.79-.03-.09-.06-.06h-.12l-.06.06-.03.09.03.09.06.06h.12l.06-.06.03-.09z"/><path fill="none" d="m488.27 632.79-.03-.09-.06-.06h-.12l-.06.06-.03.09.03.09.06.06h.12l.06-.06.03-.09z"/><path stroke-width=".36" stroke-linecap="round" stroke-linejoin="round" fill="none" stroke="#000" d="M483.68 632.79h-8.91"/><path d="m470.45 632.79-.03-.09-.06-.06h-.12l-.06.06-.03.09.03.09.06.06h.12l.06-.06.03-.09z"/><path fill="none" d="m470.45 632.79-.03-.09-.06-.06h-.12l-.06.06-.03.09.03.09.06.06h.12l.06-.06.03-.09z"/><path stroke-width=".36" stroke-linecap="round" stroke-linejoin="round" fill="none" stroke="#000" d="M465.83 632.79h-8.91"/><path d="m452.63 632.79-.03-.09-.06-.06h-.12l-.06.06-.03.09.03.09.06.06h.12l.06-.06.03-.09z"/><path fill="none" d="m452.63 632.79-.03-.09-.06-.06h-.12l-.06.06-.03.09.03.09.06.06h.12l.06-.06.03-.09z"/><path stroke-width=".36" stroke-linecap="round" stroke-linejoin="round" fill="none" stroke="#000" d="M448.01 632.79h-8.91"/><path d="m434.81 632.79-.03-.09-.06-.06h-.12l-.06.06-.03.09.03.09.06.06h.12l.06-.06.03-.09z"/><path fill="none" d="m434.81 632.79-.03-.09-.06-.06h-.12l-.06.06-.03.09.03.09.06.06h.12l.06-.06.03-.09z"/><path stroke-width=".36" stroke-linecap="round" stroke-linejoin="round" fill="none" stroke="#000" d="M430.19 632.79h-8.91"/><path d="m416.96 632.79-.03-.09-.06-.06h-.12l-.06.06-.03.09.03.09.06.06h.12l.06-.06.03-.09z"/><path fill="none" d="m416.96 632.79-.03-.09-.06-.06h-.12l-.06.06-.03.09.03.09.06.06h.12l.06-.06.03-.09z"/><path stroke-width=".36" stroke-linecap="round" stroke-linejoin="round" fill="none" stroke="#000" d="M412.37 632.79h-8.91"/><path d="m399.14 632.79-.03-.09-.06-.06h-.12l-.06.06-.03.09.03.09.06.06h.12l.06-.06.03-.09z"/><path fill="none" d="m399.14 632.79-.03-.09-.06-.06h-.12l-.06.06-.03.09.03.09.06.06h.12l.06-.06.03-.09z"/><path stroke-width=".36" stroke-linecap="round" stroke-linejoin="round" fill="none" stroke="#000" d="M394.55 632.79h-8.94"/><path d="m381.32 632.79-.03-.09-.06-.06h-.12l-.06.06-.03.09.03.09.06.06h.12l.06-.06.03-.09z"/><path fill="none" d="m381.32 632.79-.03-.09-.06-.06h-.12l-.06.06-.03.09.03.09.06.06h.12l.06-.06.03-.09z"/><path stroke-width=".36" stroke-linecap="round" stroke-linejoin="round" fill="none" stroke="#000" d="M376.7 632.79h-8.91"/><path d="m363.5 632.79-.03-.09-.06-.06h-.12l-.06.06-.03.09.03.09.06.06h.12l.06-.06.03-.09z"/><path fill="none" d="m363.5 632.79-.03-.09-.06-.06h-.12l-.06.06-.03.09.03.09.06.06h.12l.06-.06.03-.09z"/><path stroke-width=".36" stroke-linecap="round" stroke-linejoin="round" fill="none" stroke="#000" d="M358.88 632.79h-8.91"/><path d="m345.65 632.79-.03-.09-.06-.06h-.12l-.06.06-.03.09.03.09.06.06h.12l.06-.06.03-.09z"/><path fill="none" d="m345.65 632.79-.03-.09-.06-.06h-.12l-.06.06-.03.09.03.09.06.06h.12l.06-.06.03-.09z"/><path stroke-width=".36" stroke-linecap="round" stroke-linejoin="round" fill="none" stroke="#000" d="M341.06 632.79h-8.91"/><path d="m327.83 632.79-.03-.09-.06-.06h-.12l-.06.06-.03.09.03.09.06.06h.12l.06-.06.03-.09z"/><path fill="none" d="m327.83 632.79-.03-.09-.06-.06h-.12l-.06.06-.03.09.03.09.06.06h.12l.06-.06.03-.09z"/><path stroke-width=".36" stroke-linecap="round" stroke-linejoin="round" fill="none" stroke="#000" d="M323.24 632.79h-8.91"/><path d="m310.01 632.79-.03-.09-.06-.06h-.12l-.06.06-.03.09.03.09.06.06h.12l.06-.06.03-.09z"/><path fill="none" d="m310.01 632.79-.03-.09-.06-.06h-.12l-.06.06-.03.09.03.09.06.06h.12l.06-.06.03-.09z"/><path stroke-width=".36" stroke-linecap="round" stroke-linejoin="round" fill="none" stroke="#000" d="M305.39 632.79h-8.91"/><path d="m292.19 632.79-.03-.09-.06-.06h-.12l-.06.06-.03.09.03.09.06.06h.12l.06-.06.03-.09z"/><path fill="none" d="m292.19 632.79-.03-.09-.06-.06h-.12l-.06.06-.03.09.03.09.06.06h.12l.06-.06.03-.09z"/><path stroke-width=".36" stroke-linecap="round" stroke-linejoin="round" fill="none" stroke="#000" d="M287.57 632.79h-12.18M850.88 753.06v7.29"/><path d="m851.03 764.82-.03-.09-.06-.06h-.12l-.06.06-.03.09.03.09.06.06h.12l.06-.06.03-.09z"/><path fill="none" d="m851.03 764.82-.03-.09-.06-.06h-.12l-.06.06-.03.09.03.09.06.06h.12l.06-.06.03-.09z"/><path stroke-width=".36" stroke-linecap="round" stroke-linejoin="round" fill="none" stroke="#000" d="M850.88 769.29v8.91"/><path d="m851.03 782.64-.03-.09-.06-.06h-.12l-.06.06-.03.09.03.09.06.06h.12l.06-.06.03-.09z"/><path fill="none" d="m851.03 782.64-.03-.09-.06-.06h-.12l-.06.06-.03.09.03.09.06.06h.12l.06-.06.03-.09z"/><path stroke-width=".36" stroke-linecap="round" stroke-linejoin="round" fill="none" stroke="#000" d="M850.88 787.11v8.91"/><path d="m851.03 800.46-.03-.09-.06-.06h-.12l-.06.06-.03.09.03.09.06.06h.12l.06-.06.03-.09z"/><path fill="none" d="m851.03 800.46-.03-.09-.06-.06h-.12l-.06.06-.03.09.03.09.06.06h.12l.06-.06.03-.09z"/><path stroke-width=".36" stroke-linecap="round" stroke-linejoin="round" fill="none" stroke="#000" d="M850.88 804.93v8.91"/><path d="m851.03 818.31-.03-.09-.06-.06h-.12l-.06.06-.03.09.03.09.06.06h.12l.06-.06.03-.09z"/><path fill="none" d="m851.03 818.31-.03-.09-.06-.06h-.12l-.06.06-.03.09.03.09.06.06h.12l.06-.06.03-.09z"/><path stroke-width=".36" stroke-linecap="round" stroke-linejoin="round" fill="none" stroke="#000" d="M850.88 822.75v8.91"/><path d="m851.03 836.13-.03-.09-.06-.06h-.12l-.06.06-.03.09.03.09.06.06h.12l.06-.06.03-.09z"/><path fill="none" d="m851.03 836.13-.03-.09-.06-.06h-.12l-.06.06-.03.09.03.09.06.06h.12l.06-.06.03-.09z"/><path stroke-width=".36" stroke-linecap="round" stroke-linejoin="round" fill="none" stroke="#000" d="M850.88 840.57v8.94"/><path d="m851.03 853.95-.03-.09-.06-.06h-.12l-.06.06-.03.09.03.09.06.06h.12l.06-.06.03-.09z"/><path fill="none" d="m851.03 853.95-.03-.09-.06-.06h-.12l-.06.06-.03.09.03.09.06.06h.12l.06-.06.03-.09z"/><path stroke-width=".36" stroke-linecap="round" stroke-linejoin="round" fill="none" stroke="#000" d="M850.88 858.42v8.91"/><path d="m851.03 871.77-.03-.09-.06-.06h-.12l-.06.06-.03.09.03.09.06.06h.12l.06-.06.03-.09z"/><path fill="none" d="m851.03 871.77-.03-.09-.06-.06h-.12l-.06.06-.03.09.03.09.06.06h.12l.06-.06.03-.09z"/><path stroke-width=".36" stroke-linecap="round" stroke-linejoin="round" fill="none" stroke="#000" d="M850.88 876.24v8.91"/><path d="m851.03 889.62-.03-.09-.06-.06h-.12l-.06.06-.03.09.03.09.06.06h.12l.06-.06.03-.09z"/><path fill="none" d="m851.03 889.62-.03-.09-.06-.06h-.12l-.06.06-.03.09.03.09.06.06h.12l.06-.06.03-.09z"/><path stroke-width=".36" stroke-linecap="round" stroke-linejoin="round" fill="none" stroke="#000" d="M850.88 894.06v8.91"/><path d="m851.03 907.44-.03-.09-.06-.06h-.12l-.06.06-.03.09.03.09.06.06h.12l.06-.06.03-.09z"/><path fill="none" d="m851.03 907.44-.03-.09-.06-.06h-.12l-.06.06-.03.09.03.09.06.06h.12l.06-.06.03-.09z"/><path stroke-width=".36" stroke-linecap="round" stroke-linejoin="round" fill="none" stroke="#000" d="M850.88 911.88v8.91"/><path d="m851.03 925.26-.03-.09-.06-.06h-.12l-.06.06-.03.09.03.09.06.06h.12l.06-.06.03-.09z"/><path fill="none" d="m851.03 925.26-.03-.09-.06-.06h-.12l-.06.06-.03.09.03.09.06.06h.12l.06-.06.03-.09z"/><path stroke-width=".36" stroke-linecap="round" stroke-linejoin="round" fill="none" stroke="#000" d="M850.88 929.73v8.91"/><path d="m851.03 943.08-.03-.09-.06-.06h-.12l-.06.06-.03.09.03.09.06.06h.12l.06-.06.03-.09z"/><path fill="none" d="m851.03 943.08-.03-.09-.06-.06h-.12l-.06.06-.03.09.03.09.06.06h.12l.06-.06.03-.09z"/><path stroke-width=".36" stroke-linecap="round" stroke-linejoin="round" fill="none" stroke="#000" d="M850.88 947.55v8.91"/><path d="m851.03 960.9-.03-.09-.06-.06h-.12l-.06.06-.03.09.03.09.06.06h.12l.06-.06.03-.09z"/><path fill="none" d="m851.03 960.9-.03-.09-.06-.06h-.12l-.06.06-.03.09.03.09.06.06h.12l.06-.06.03-.09z"/><path stroke-width=".36" stroke-linecap="round" stroke-linejoin="round" fill="none" stroke="#000" d="M850.88 965.37v8.91"/><path d="m851.03 978.75-.03-.09-.06-.06h-.12l-.06.06-.03.09.03.09.06.06h.12l.06-.06.03-.09z"/><path fill="none" d="m851.03 978.75-.03-.09-.06-.06h-.12l-.06.06-.03.09.03.09.06.06h.12l.06-.06.03-.09z"/><path stroke-width=".36" stroke-linecap="round" stroke-linejoin="round" fill="none" stroke="#000" d="M850.88 983.19v8.91"/><path d="m851.03 996.57-.03-.09-.06-.06h-.12l-.06.06-.03.09.03.09.06.06h.12l.06-.06.03-.09z"/><path fill="none" d="m851.03 996.57-.03-.09-.06-.06h-.12l-.06.06-.03.09.03.09.06.06h.12l.06-.06.03-.09z"/><path stroke-width=".36" stroke-linecap="round" stroke-linejoin="round" fill="none" stroke="#000" d="M850.88 1001.04v8.91"/><path d="m851.03 1014.39-.03-.09-.06-.06h-.12l-.06.06-.03.09.03.09.06.06h.12l.06-.06.03-.09z"/><path fill="none" d="m851.03 1014.39-.03-.09-.06-.06h-.12l-.06.06-.03.09.03.09.06.06h.12l.06-.06.03-.09z"/><path stroke-width=".36" stroke-linecap="round" stroke-linejoin="round" fill="none" stroke="#000" d="M850.88 1018.86v8.91"/><path d="m851.03 1032.21-.03-.09-.06-.06h-.12l-.06.06-.03.09.03.09.06.06h.12l.06-.06.03-.09z"/><path fill="none" d="m851.03 1032.21-.03-.09-.06-.06h-.12l-.06.06-.03.09.03.09.06.06h.12l.06-.06.03-.09z"/><path stroke-width=".36" stroke-linecap="round" stroke-linejoin="round" fill="none" stroke="#000" d="M850.88 1036.68v8.91"/><path d="m851.03 1050.06-.03-.09-.06-.06h-.12l-.06.06-.03.09.03.09.06.06h.12l.06-.06.03-.09z"/><path fill="none" d="m851.03 1050.06-.03-.09-.06-.06h-.12l-.06.06-.03.09.03.09.06.06h.12l.06-.06.03-.09z"/><path stroke-width=".36" stroke-linecap="round" stroke-linejoin="round" fill="none" stroke="#000" d="M850.88 1054.5v7.32M1026.32 1094.49V742.41M967.85 1094.49V742.41M909.35 1094.49V742.41M275.39 457.32h1120.74M275.39 515.79h1120.74M275.39 574.29h1120.74"/></g><g data-name="grammes" stroke-width="12" stroke-linecap="round" stroke-linejoin="round" fill="none" stroke="#000"><path d="m1308.77 175.62-3.12 7.92-3.18 7.92-1.59 3.93-1.62 3.93-1.65 3.93-1.68 3.9-1.71 3.9-1.74 3.87-1.8 3.87-1.83 3.84-1.86 3.81-1.86 3.84-3.78 7.65-1.92 3.81-1.95 3.78-1.98 3.78-1.05 1.86-1.05 1.86-1.08 1.83-1.08 1.83-1.14 1.8-1.17 1.77-1.2 1.77-1.23 1.74-1.26 1.71-1.32 1.68-1.35 1.65-1.38 1.65-1.41 1.59-1.44 1.59-1.5 1.53-1.5 1.53-1.56 1.5-1.56 1.44-1.62 1.44-1.62 1.41-1.65 1.35-1.68 1.32-1.71 1.32-1.74 1.26-1.74 1.2-1.77 1.2-1.8 1.17-1.83 1.11-1.83 1.08-1.83 1.05-1.86 1.05-1.89.99-1.89.96-1.89.96-1.92.93-1.92.93-1.92.9-1.95.87-1.95.84-1.95.84-1.98.81-1.98.78-1.98.78-2.01.75-3.99 1.47-4.05 1.38-4.05 1.32-4.11 1.26-4.11 1.17-4.11 1.14-4.17 1.08-4.14 1.02-4.17.96-4.2.9-4.2.87-4.17.81-4.2.78-4.23.75-4.2.69-4.2.66-4.23.6-4.23.6-4.23.54-4.23.51-4.23.48-4.23.45-4.23.39-4.23.39-4.26.36-4.23.33-4.26.3-4.26.3-4.23.27-8.52.45-8.52.39-8.52.3-8.52.27-8.52.24-8.49.18-8.52.18-8.52.12-8.52.12-8.52.06-8.52.06-8.49.03h-17.04l-8.52-.03-17.01-.15-17.01-.21-17.04-.27-17.01-.33-17.01-.36-17.04-.42-17.01-.45-17.04-.48-17.01-.51-17.04-.57-17.01-.63-17.01-.69-17.01-.78-8.49-.39-8.49-.45-8.52-.45-8.49-.48-8.49-.48-8.49-.51-8.49-.57-8.49-.57-8.49-.63-8.49-.69-8.49-.78-8.49-.84-4.26-.42-4.26-.48-4.23-.48-4.26-.54-4.23-.51-4.23-.57-4.26-.6-4.23-.6-4.23-.66-4.23-.66-4.2-.69-4.23-.75-4.2-.75-4.2-.78-4.2-.84-4.17-.84-4.17-.9-4.17-.9-4.17-.96-4.14-1.02-4.14-1.02-4.11-1.08-4.11-1.11-4.11-1.14-4.08-1.2-4.08-1.23-4.05-1.26-4.05-1.32-4.05-1.38-4.02-1.38-3.99-1.47-3.99-1.5-3.96-1.53-3.96-1.59-3.93-1.62-3.93-1.65-3.9-1.68-3.9-1.71-3.9-1.74-3.87-1.77-3.87-1.77-3.84-1.83-3.84-1.83-3.84-1.86-3.81-1.86-3.81-1.92-3.78-1.95-3.75-2.01-3.75-2.04-3.72-2.04-3.69-2.13-3.69-2.13-3.66-2.16-3.66-2.19-3.63-2.19-3.63-2.25-7.23-4.53-7.17-4.56-7.17-4.62-7.11-4.68-7.08-4.71-3.54-2.4-3.51-2.4-3.48-2.43-3.48-2.43-3.48-2.46-3.45-2.49-3.45-2.52-3.42-2.52-6.81-5.1-6.81-5.13-6.78-5.13" stroke-width=".36"/><path d="m1219.91 188.82-3.93 6.84-1.98 3.39-2.04 3.39-2.07 3.33-1.08 1.65-1.08 1.65-1.11 1.62-1.11 1.62-1.14 1.62-1.14 1.59-1.17 1.59-1.17 1.56-2.43 3.12-2.46 3.09-2.52 3.03-2.55 2.97-2.64 2.97-2.64 2.88-2.7 2.88-2.76 2.82-2.79 2.76-2.82 2.76-2.88 2.7-2.91 2.64-2.94 2.61-3 2.58-3.03 2.55-3.06 2.49-3.09 2.46-3.15 2.4-3.15 2.37-3.21 2.31-3.24 2.25-3.3 2.22-3.3 2.13-3.36 2.07-1.68 1.02-1.71 1.02-1.71.96-1.71.96-1.74.96-1.71.93-1.77.9-1.74.9-1.77.87-1.77.84-1.77.81-1.8.81-1.8.78-1.8.78-1.83.75-1.8.72-1.83.72-1.86.69-1.83.66-1.86.66-3.72 1.26-3.78 1.17-3.75 1.14-3.81 1.05-3.81 1.02-3.84.96-3.87.9-3.87.84-3.87.81-3.9.78-3.9.72-3.9.69-3.93.66-3.9.63-3.93.6-3.9.57-3.93.54-3.9.54-3.93.48-3.9.48-3.93.45-3.9.45-3.93.42-3.93.39-3.9.36-3.93.36-3.9.33-7.86.6-7.83.51-7.86.48-7.83.39-7.86.36-7.86.3-7.86.21-7.86.21-7.89.12-7.86.12-7.89.03-7.86.03-7.89-.06-7.86-.06-7.89-.09-7.86-.15-7.86-.18-7.89-.21-7.86-.21-15.75-.45-15.75-.51-7.86-.27-7.86-.3-7.89-.33-7.86-.36-7.86-.36-7.89-.45-7.86-.45-7.86-.54-7.83-.54-7.86-.63-7.83-.69-7.86-.75-7.83-.81-7.8-.87-3.93-.48-3.9-.48-3.9-.51-3.9-.54-3.9-.54-3.9-.57-3.9-.6-3.87-.63-3.9-.63-3.9-.66-3.87-.69-3.87-.69-3.87-.72-3.87-.75-3.87-.78-3.87-.81-3.84-.81-3.84-.84-3.84-.87-3.84-.9-3.84-.9-3.81-.96-3.81-.96-3.81-.99-3.81-1.02-3.81-1.05-3.78-1.05-3.78-1.11-3.78-1.11-3.75-1.17-3.75-1.17-3.78-1.17-3.72-1.23-3.75-1.23-3.72-1.26-3.72-1.29-3.72-1.29-3.72-1.32-3.69-1.35-3.72-1.35-7.35-2.76-7.35-2.85-7.35-2.88-7.29-2.94-7.29-3-7.26-3.06-3.63-1.56-3.6-1.59-3.6-1.59-3.6-1.62-3.57-1.62-3.57-1.65-3.57-1.71-3.54-1.71-3.54-1.71-3.51-1.77-3.51-1.8-3.48-1.83-3.48-1.83-3.45-1.89-3.45-1.92-3.42-1.92-3.42-1.98-3.39-1.98-3.36-2.04-3.39-2.04-3.33-2.07-3.36-2.07-3.3-2.13-3.33-2.13-3.3-2.16-3.27-2.16-3.27-2.22-3.24-2.22-3.27-2.22-3.21-2.25-3.21-2.28-3.21-2.28-3.21-2.31-3.18-2.31-3.15-2.34-3.15-2.37-6.3-4.74-6.21-4.83-6.21-4.86-6.12-4.92-6.12-4.98-6.06-5.01-6.06-5.04-6-5.07-6-5.13-5.97-5.1-11.91-10.29" stroke-width=".36"/><path d="m1066.13 197.19-3.48 3.36-3.51 3.33-3.54 3.3-1.8 1.65-1.8 1.62-1.8 1.59-1.83 1.59-1.86 1.53-1.86 1.53-1.86 1.53-1.92 1.47-1.95 1.44-1.95 1.38-1.98 1.38-2.01 1.35-2.01 1.32-2.04 1.29-2.07 1.29-2.07 1.23-2.07 1.23-2.1 1.23-4.2 2.4-4.23 2.34-4.23 2.31-4.29 2.28-2.13 1.11-2.16 1.08-2.16 1.08-2.16 1.05-2.19 1.05-2.19 1.05-2.19 1.02-2.19.99-4.41 1.98-4.47 1.89-4.47 1.83-4.5 1.77-4.5 1.74-4.56 1.65-4.56 1.59-4.59 1.53-4.62 1.47-4.62 1.41-4.65 1.38-4.68 1.29-4.68 1.23-4.68 1.17-4.71 1.11-4.74 1.05-4.74 1.02-4.74.93-4.77.9-4.77.81-4.8.78-4.77.72-4.83.66-4.8.6-4.83.54-4.8.51-4.83.42-4.86.39-4.83.33-4.83.3-4.86.21-4.83.18-4.86.12-4.86.09h-4.86l-4.83-.03-4.86-.06-4.86-.15-4.83-.18-4.86-.21-4.86-.27-4.83-.33-4.83-.36-4.86-.42-4.83-.45-4.83-.51-4.83-.57-4.8-.57-4.83-.66-4.8-.66-4.8-.72-4.8-.78-4.77-.81-4.8-.84-4.77-.9-4.74-.93-4.77-.96-4.74-1.02-4.74-1.05-4.71-1.08-4.71-1.11-4.68-1.17-4.71-1.2-4.65-1.23-4.68-1.29-4.62-1.32-4.62-1.41-4.62-1.44-4.59-1.5-4.59-1.53-4.56-1.59-4.53-1.65-4.53-1.68-4.53-1.74-4.5-1.77-4.47-1.8-4.47-1.83-4.47-1.89-4.47-1.92-4.41-1.92-4.44-1.98-4.41-1.98-4.41-2.04-4.38-2.07-4.38-2.1-4.32-2.13-2.16-1.11-2.16-1.11-2.13-1.11-2.13-1.14-2.13-1.17-2.1-1.17-2.1-1.2-2.07-1.23-2.07-1.23-2.07-1.26-2.04-1.29-2.04-1.29-2.01-1.35-2.01-1.35-1.95-1.41-.96-.72-.96-.75-.96-.75-.93-.78-.9-.78-.9-.78-1.8-1.65-1.74-1.68-1.68-1.71-1.68-1.77-1.62-1.8-1.62-1.8-1.59-1.86-1.53-1.86-1.56-1.86-1.5-1.89-1.5-1.92-1.47-1.89-1.47-1.95-1.44-1.92-2.85-3.9-2.79-3.96-2.76-3.96-2.73-3.99-5.43-7.98M952.34 833.88l6.51 4.59 6.48 4.59 6.48 4.62 6.45 4.68 3.21 2.37 3.18 2.37 3.18 2.4 3.18 2.43 3.15 2.46 3.15 2.46 3.12 2.49 3.09 2.55 3.09 2.55 3.06 2.61 3.03 2.61 1.47 1.35 1.5 1.35 1.47 1.38 1.44 1.38 1.44 1.41 1.38 1.41 1.41 1.44 1.35 1.47 1.32 1.5 1.32 1.5 1.29 1.53 1.23 1.56 1.23 1.59 1.17 1.62 1.14 1.65 1.11 1.68 1.08 1.71 1.02 1.74.99 1.77.93 1.83.9 1.86.42.93.39.93.3.96.15.48.12.48.12.48.09.51.06.48.03.48.03.48-.03.51-.03.48-.06.51-.15.99-.21.99M1047.56 875.25l.21-1.8.06-.93.03-.9v-.9l-.06-.9-.12-.9-.18-.9-.21-.87-.24-.9-.3-.87-.3-.87-.33-.84-.36-.87-.39-.81-.39-.84-.39-.81-.42-.81-.87-1.62-.93-1.56-.99-1.53-1.02-1.5-1.05-1.47-1.11-1.47-1.11-1.44-1.14-1.41-1.14-1.41-1.2-1.38-1.2-1.35-1.23-1.35-1.23-1.32-1.26-1.32-1.29-1.29-1.29-1.29-1.32-1.26-2.64-2.49-2.7-2.46-2.73-2.43-2.76-2.4-2.76-2.37-2.79-2.34-2.79-2.31-2.82-2.31-2.82-2.28-2.85-2.28-2.85-2.25-5.73-4.47-5.76-4.44-11.55-8.79M846.41 1026.18l-9.45-7.59-4.74-3.81-4.71-3.84-4.68-3.84-4.68-3.9-2.31-1.95-2.28-1.98-2.31-2.01-2.25-2.01-2.25-2.04-2.22-2.07-2.22-2.1-2.16-2.13-2.13-2.16-2.13-2.19-2.07-2.22-2.04-2.25-2.01-2.31-1.95-2.31-1.92-2.37-1.89-2.4-1.83-2.4-1.8-2.46-1.77-2.49-1.68-2.52-1.68-2.52-1.59-2.58-1.56-2.61-1.5-2.64-1.47-2.64-1.41-2.7-1.38-2.7-1.35-2.7-1.32-2.76-1.29-2.76-1.23-2.76-1.23-2.79-1.2-2.82-1.17-2.79-1.14-2.82-1.14-2.82-2.22-5.67-2.19-5.7-4.32-11.34-2.16-5.67-2.19-5.64-2.25-5.64-2.28-5.64M846.41 1020.78v21.54M855.32 1042.32v-21.54M846.41 1042.32v5.76M846.451 1048.078c2.919.723 5.97.723 8.888 0M855.32 1048.08v-5.76" stroke-width=".36"/><path d="m846.41 1020.78-8.52-1.65-8.52-1.65-4.26-.78-4.29-.78-4.26-.75-4.29-.72-4.29-.72-4.29-.66-4.29-.66-4.29-.63-17.19-2.43-8.61-1.26-4.29-.63-4.29-.66-4.29-.69-4.29-.72-4.26-.72-4.29-.81-4.26-.84-2.1-.42-2.13-.48-2.13-.48-2.1-.51-2.1-.51-2.1-.57-2.1-.57-2.1-.6-2.07-.63-2.07-.66-2.07-.69-2.07-.72-2.04-.78-2.07-.78-2.01-.84-2.01-.87-1.98-.93-1.98-.96-1.92-1.02-1.89-1.08-.96-.57-.93-.57-.9-.57-.9-.6-.9-.63-.87-.63-.87-.63-.87-.66-.84-.69-.84-.69-.81-.72-.81-.72-.78-.75-.78-.75-.75-.78-.75-.78-.75-.81-.72-.81-.69-.84-.72-.84-.66-.87-.66-.87-.66-.87-.66-.9-1.23-1.8-1.2-1.86-1.14-1.89-1.08-1.92-1.02-1.95-.99-1.98-.93-1.98-.9-2.04-.84-2.01-.78-2.07-.72-2.04-.72-2.07-.66-2.07-.6-2.1-.6-2.07-.54-2.1-.51-2.13-.51-2.1-.48-2.13-.45-2.13-.84-4.23-.81-4.29-.78-4.26-.75-4.29-.72-4.26-.72-4.29-.69-4.29-.69-4.29-.66-4.29-1.26-8.58-1.23-8.61" stroke-width=".36"/></g><g data-name="panorama-tomes"><use xlink:href="#c" transform="matrix(19.60959 0 0 -19.60959 632.319 873.75)"/><use xlink:href="#d" transform="matrix(19.60959 0 0 -19.60959 642.691 873.75)"/><use xlink:href="#h" transform="matrix(19.60959 0 0 -19.60959 648.966 873.999)"/></g><g data-name="grammes" stroke-width="12" stroke-linecap="round" stroke-linejoin="round" fill="none" stroke="#000"><path d="M846.41 1024.29v20.13M855.32 1044.42v-20.13M846.41 1044.42v6M846.448 1050.398c2.917.75 5.977.75 8.894 0M855.32 1050.42v-6M846.41 1024.29l-7.65-1.8-7.65-1.8-7.68-1.74-3.84-.87-3.84-.81-3.84-.81-3.84-.81-7.68-1.53-7.65-1.56-3.84-.81-3.84-.81-3.84-.87-3.81-.87-3.84-.96-3.81-.99-3.81-1.05-1.89-.57-1.89-.57-1.89-.6-1.92-.6-1.89-.63-1.89-.66-1.89-.69-1.86-.69-1.89-.72-1.86-.75-1.89-.78-1.83-.78-1.86-.84-1.83-.84-1.8-.87-1.8-.9-1.8-.93-1.77-.96-1.74-.96-1.74-1.02-1.71-1.05-1.68-1.05-1.68-1.08-1.62-1.14-1.62-1.14-1.59-1.17-1.53-1.23-1.53-1.23-1.5-1.29-1.44-1.29-1.44-1.32-1.38-1.38-1.35-1.41-1.32-1.41-1.26-1.47-1.23-1.5-1.2-1.53-1.14-1.56-1.14-1.59-1.08-1.59-1.05-1.65-.99-1.68-.99-1.68-.96-1.71-.93-1.74-.9-1.74-.87-1.77-.87-1.8-.84-1.8-.81-1.8-.78-1.83-.78-1.86-.75-1.83-.75-1.86-1.44-3.75-1.41-3.75-1.35-3.78-1.38-3.75-1.32-3.75-1.35-3.72-1.29-3.75-1.26-3.72-1.2-3.72-.57-1.89-.57-1.86-.54-1.89-.54-1.89-.51-1.89-.48-1.89-.45-1.89-.45-1.92-.39-1.92-.39-1.92-.72-3.87-.66-3.87" stroke-width=".36"/></g><g data-name="panorama-tomes"><use xlink:href="#c" transform="matrix(19.60959 0 0 -19.60959 664.899 876.27)"/><use xlink:href="#g" transform="matrix(19.60959 0 0 -19.60959 675.52 876.27)"/></g><g data-name="grammes" stroke-width="12" stroke-linecap="round" stroke-linejoin="round" fill="none" stroke="#000"><path d="M846.41 1026.18v18.72M855.32 1044.9v-18.72M846.41 1044.9v6.03M846.448 1050.897a10.455 10.455 0 0 0 8.894 0M855.32 1050.93v-6.03" stroke-width=".36"/></g><g data-name="panorama-tomes"><use xlink:href="#c" transform="matrix(19.60959 0 0 -19.60959 716.559 865.41)"/><use xlink:href="#d" transform="matrix(19.60959 0 0 -19.60959 726.931 865.41)"/><use xlink:href="#e" transform="matrix(19.60959 0 0 -19.60959 733.197 865.65)"/></g><g data-name="grammes" stroke-width="12" stroke-linecap="round" stroke-linejoin="round" fill="none" stroke="#000"><path d="m846.41 1020.78-.81-190.41h10.53l-.81 190.41" stroke-width=".36"/><path d="m845.66 843.93-11.88 3.15-11.85 3.15-11.88 3.06-5.94 1.5-5.94 1.5-5.94 1.47-5.94 1.44-5.94 1.38-5.97 1.41-5.97 1.35-5.97 1.35-5.97 1.32-6 1.32-6.03 1.32-6.03 1.32-6.06 1.29-6.06 1.29-6.09 1.26-3.06.6-3.06.57-3.06.54-3.03.54-3.06.48-3.06.48-3.03.42-3.06.39-3.03.36-3.06.33-3.03.24-3.03.21-3.03.18-3.03.09-3 .06h-3.03l-1.5-.03-1.5-.06-1.5-.09-1.5-.09-1.5-.15-1.53-.21-1.5-.24-.75-.18-.78-.15-.75-.21-.78-.21-.78-.24-.78-.24-.39-.15-.36-.15-.36-.18-.3-.21-.15-.12-.15-.12-.09-.15-.12-.15-.15-.36-.15-.36M845.84 882.54l-22.83 6.15-11.43 3.09-11.46 3.09-11.49 3.15-11.52 3.15-11.55 3.18-11.61 3.24-11.64 3.27-5.85 1.62-5.82 1.59-5.85 1.56-5.82 1.47-2.91.75-2.91.69-2.91.69-2.91.66-2.88.63-2.91.63-2.88.57-2.88.57-2.85.51-2.85.51-2.88.45-2.82.42-2.85.36-1.41.18-1.41.15-1.44.15-1.44.09-1.47.06-1.47.03-1.5-.03-1.56-.06-1.56-.12-.81-.09-.81-.09-.81-.12-.81-.12-.42-.09-.39-.09-.39-.12-.36-.12-.33-.18-.33-.18-.27-.21-.27-.24-.21-.27-.18-.3-.15-.36-.12-.33" stroke-width=".36"/></g><g data-name="grammes_axones"><path stroke-width=".36" stroke-linecap="round" stroke-linejoin="round" fill="none" stroke="#000" d="M675.41 1094.49V742.41M733.88 1094.49V742.41M792.38 1094.49V742.41M850.88 742.41v11.13"/><path d="m851.03 758.01-.03-.09-.06-.06h-.12l-.06.06-.03.09.03.09.06.06h.12l.06-.06.03-.09z"/><path fill="none" d="m851.03 758.01-.03-.09-.06-.06h-.12l-.06.06-.03.09.03.09.06.06h.12l.06-.06.03-.09z"/><path stroke-width=".36" stroke-linecap="round" stroke-linejoin="round" fill="none" stroke="#000" d="M850.88 762.45v8.94"/><path d="m851.03 775.83-.03-.09-.06-.06h-.12l-.06.06-.03.09.03.09.06.06h.12l.06-.06.03-.09z"/><path fill="none" d="m851.03 775.83-.03-.09-.06-.06h-.12l-.06.06-.03.09.03.09.06.06h.12l.06-.06.03-.09z"/><path stroke-width=".36" stroke-linecap="round" stroke-linejoin="round" fill="none" stroke="#000" d="M850.88 780.3v8.91"/><path d="m851.03 793.65-.03-.09-.06-.06h-.12l-.06.06-.03.09.03.09.06.06h.12l.06-.06.03-.09z"/><path fill="none" d="m851.03 793.65-.03-.09-.06-.06h-.12l-.06.06-.03.09.03.09.06.06h.12l.06-.06.03-.09z"/><path stroke-width=".36" stroke-linecap="round" stroke-linejoin="round" fill="none" stroke="#000" d="M850.88 798.12v8.91"/><path d="m851.03 811.5-.03-.09-.06-.06h-.12l-.06.06-.03.09.03.09.06.06h.12l.06-.06.03-.09z"/><path fill="none" d="m851.03 811.5-.03-.09-.06-.06h-.12l-.06.06-.03.09.03.09.06.06h.12l.06-.06.03-.09z"/><path stroke-width=".36" stroke-linecap="round" stroke-linejoin="round" fill="none" stroke="#000" d="M850.88 815.94v8.91"/><path d="m851.03 829.32-.03-.09-.06-.06h-.12l-.06.06-.03.09.03.09.06.06h.12l.06-.06.03-.09z"/><path fill="none" d="m851.03 829.32-.03-.09-.06-.06h-.12l-.06.06-.03.09.03.09.06.06h.12l.06-.06.03-.09z"/><path stroke-width=".36" stroke-linecap="round" stroke-linejoin="round" fill="none" stroke="#000" d="M850.88 833.76v8.91"/><path d="m851.03 847.14-.03-.09-.06-.06h-.12l-.06.06-.03.09.03.09.06.06h.12l.06-.06.03-.09z"/><path fill="none" d="m851.03 847.14-.03-.09-.06-.06h-.12l-.06.06-.03.09.03.09.06.06h.12l.06-.06.03-.09z"/><path stroke-width=".36" stroke-linecap="round" stroke-linejoin="round" fill="none" stroke="#000" d="M850.88 851.61v8.91"/><path d="m851.03 864.96-.03-.09-.06-.06h-.12l-.06.06-.03.09.03.09.06.06h.12l.06-.06.03-.09z"/><path fill="none" d="m851.03 864.96-.03-.09-.06-.06h-.12l-.06.06-.03.09.03.09.06.06h.12l.06-.06.03-.09z"/><path stroke-width=".36" stroke-linecap="round" stroke-linejoin="round" fill="none" stroke="#000" d="M850.88 869.43v8.91"/><path d="m851.03 882.78-.03-.09-.06-.06h-.12l-.06.06-.03.09.03.09.06.06h.12l.06-.06.03-.09z"/><path fill="none" d="m851.03 882.78-.03-.09-.06-.06h-.12l-.06.06-.03.09.03.09.06.06h.12l.06-.06.03-.09z"/><path stroke-width=".36" stroke-linecap="round" stroke-linejoin="round" fill="none" stroke="#000" d="M850.88 887.25v8.91"/><path d="m851.03 900.63-.03-.09-.06-.06h-.12l-.06.06-.03.09.03.09.06.06h.12l.06-.06.03-.09z"/><path fill="none" d="m851.03 900.63-.03-.09-.06-.06h-.12l-.06.06-.03.09.03.09.06.06h.12l.06-.06.03-.09z"/><path stroke-width=".36" stroke-linecap="round" stroke-linejoin="round" fill="none" stroke="#000" d="M850.88 905.07v8.91"/><path d="m851.03 918.45-.03-.09-.06-.06h-.12l-.06.06-.03.09.03.09.06.06h.12l.06-.06.03-.09z"/><path fill="none" d="m851.03 918.45-.03-.09-.06-.06h-.12l-.06.06-.03.09.03.09.06.06h.12l.06-.06.03-.09z"/><path stroke-width=".36" stroke-linecap="round" stroke-linejoin="round" fill="none" stroke="#000" d="M850.88 922.89v8.94"/><path d="m851.03 936.27-.03-.09-.06-.06h-.12l-.06.06-.03.09.03.09.06.06h.12l.06-.06.03-.09z"/><path fill="none" d="m851.03 936.27-.03-.09-.06-.06h-.12l-.06.06-.03.09.03.09.06.06h.12l.06-.06.03-.09z"/><path stroke-width=".36" stroke-linecap="round" stroke-linejoin="round" fill="none" stroke="#000" d="M850.88 940.74v8.91"/><path d="M851.03 954.09 851 954l-.06-.06h-.12l-.06.06-.03.09.03.09.06.06h.12l.06-.06.03-.09z"/><path fill="none" d="M851.03 954.09 851 954l-.06-.06h-.12l-.06.06-.03.09.03.09.06.06h.12l.06-.06.03-.09z"/><path stroke-width=".36" stroke-linecap="round" stroke-linejoin="round" fill="none" stroke="#000" d="M850.88 958.56v8.91"/><path d="m851.03 971.94-.03-.09-.06-.06h-.12l-.06.06-.03.09.03.09.06.06h.12l.06-.06.03-.09z"/><path fill="none" d="m851.03 971.94-.03-.09-.06-.06h-.12l-.06.06-.03.09.03.09.06.06h.12l.06-.06.03-.09z"/><path stroke-width=".36" stroke-linecap="round" stroke-linejoin="round" fill="none" stroke="#000" d="M850.88 976.38v8.91"/><path d="m851.03 989.76-.03-.09-.06-.06h-.12l-.06.06-.03.09.03.09.06.06h.12l.06-.06.03-.09z"/><path fill="none" d="m851.03 989.76-.03-.09-.06-.06h-.12l-.06.06-.03.09.03.09.06.06h.12l.06-.06.03-.09z"/><path stroke-width=".36" stroke-linecap="round" stroke-linejoin="round" fill="none" stroke="#000" d="M850.88 994.2v8.94"/><path d="m851.03 1007.58-.03-.09-.06-.06h-.12l-.06.06-.03.09.03.09.06.06h.12l.06-.06.03-.09z"/><path fill="none" d="m851.03 1007.58-.03-.09-.06-.06h-.12l-.06.06-.03.09.03.09.06.06h.12l.06-.06.03-.09z"/><path stroke-width=".36" stroke-linecap="round" stroke-linejoin="round" fill="none" stroke="#000" d="M850.88 1012.05v8.91"/><path d="m851.03 1025.4-.03-.09-.06-.06h-.12l-.06.06-.03.09.03.09.06.06h.12l.06-.06.03-.09z"/><path fill="none" d="m851.03 1025.4-.03-.09-.06-.06h-.12l-.06.06-.03.09.03.09.06.06h.12l.06-.06.03-.09z"/><path stroke-width=".36" stroke-linecap="round" stroke-linejoin="round" fill="none" stroke="#000" d="M850.88 1029.87v8.91"/><path d="m851.03 1043.25-.03-.09-.06-.06h-.12l-.06.06-.03.09.03.09.06.06h.12l.06-.06.03-.09z"/><path fill="none" d="m851.03 1043.25-.03-.09-.06-.06h-.12l-.06.06-.03.09.03.09.06.06h.12l.06-.06.03-.09z"/><path stroke-width=".36" stroke-linecap="round" stroke-linejoin="round" fill="none" stroke="#000" d="M850.88 1047.69v8.91"/><path d="m851.03 1061.07-.03-.09-.06-.06h-.12l-.06.06-.03.09.03.09.06.06h.12l.06-.06.03-.09z"/><path fill="none" d="m851.03 1061.07-.03-.09-.06-.06h-.12l-.06.06-.03.09.03.09.06.06h.12l.06-.06.03-.09z"/><path stroke-width=".36" stroke-linecap="round" stroke-linejoin="round" fill="none" stroke="#000" d="M850.88 1065.51v8.91"/><path d="m851.03 1078.89-.03-.09-.06-.06h-.12l-.06.06-.03.09.03.09.06.06h.12l.06-.06.03-.09z"/><path fill="none" d="m851.03 1078.89-.03-.09-.06-.06h-.12l-.06.06-.03.09.03.09.06.06h.12l.06-.06.03-.09z"/><path stroke-width=".36" stroke-linecap="round" stroke-linejoin="round" fill="none" stroke="#000" d="M850.88 1083.36v11.13"/></g><g data-name="grammes" stroke-width="12" stroke-linecap="round" stroke-linejoin="round" fill="none" stroke="#000"><path d="m845.66 843.93-11.88 3.15-11.85 3.15-11.88 3.06-5.94 1.5-5.94 1.5-5.94 1.47-5.94 1.44-5.94 1.38-5.97 1.41-5.97 1.35-5.97 1.35-5.97 1.32-6 1.32-6.03 1.32-6.03 1.32-6.06 1.29-6.06 1.29-6.09 1.26-3.06.6-3.06.57-3.06.54-3.03.54-3.06.48-3.06.48-3.03.42-3.06.39-3.03.36-3.06.33-3.03.24-3.03.21-3.03.18-3.03.09-3 .06h-3.03l-1.5-.03-1.5-.06-1.5-.09-1.5-.09-1.5-.15-1.53-.21-1.5-.24-.75-.18-.78-.15-.75-.21-.78-.21-.78-.24-.78-.24-.39-.15-.36-.15-.36-.18-.3-.21-.15-.12-.15-.12-.09-.15-.12-.15-.15-.36-.15-.36M845.84 882.54l-22.83 6.15-11.43 3.09-11.46 3.09-11.49 3.15-11.52 3.15-11.55 3.18-11.61 3.24-11.64 3.27-5.85 1.62-5.82 1.59-5.85 1.56-5.82 1.47-2.91.75-2.91.69-2.91.69-2.91.66-2.88.63-2.91.63-2.88.57-2.88.57-2.85.51-2.85.51-2.88.45-2.82.42-2.85.36-1.41.18-1.41.15-1.44.15-1.44.09-1.47.06-1.47.03-1.5-.03-1.56-.06-1.56-.12-.81-.09-.81-.09-.81-.12-.81-.12-.42-.09-.39-.09-.39-.12-.36-.12-.33-.18-.33-.18-.27-.21-.27-.24-.21-.27-.18-.3-.15-.36-.12-.33" stroke-width=".36"/></g><g data-name="panorama-tomes"><use xlink:href="#c" transform="matrix(19.60959 0 0 -19.60959 1218.099 664.98)"/><use xlink:href="#d" transform="matrix(19.60959 0 0 -19.60959 1228.471 664.98)"/><use xlink:href="#e" transform="matrix(19.60959 0 0 -19.60959 1234.737 665.22)"/><use xlink:href="#c" transform="matrix(19.60959 0 0 -19.60959 1027.899 664.98)"/><use xlink:href="#d" transform="matrix(19.60959 0 0 -19.60959 1038.272 664.98)"/><use xlink:href="#g" transform="matrix(19.60959 0 0 -19.60959 1043.972 664.98)"/><use xlink:href="#c" transform="matrix(19.60959 0 0 -19.60959 841.359 665.04)"/><use xlink:href="#d" transform="matrix(19.60959 0 0 -19.60959 851.731 665.04)"/><use xlink:href="#h" transform="matrix(19.60959 0 0 -19.60959 858.006 665.289)"/><use xlink:href="#c" transform="matrix(19.60959 0 0 -19.60959 676.509 665.04)"/><use xlink:href="#d" transform="matrix(19.60959 0 0 -19.60959 686.881 665.04)"/><use xlink:href="#i" transform="matrix(19.60959 0 0 -19.60959 692.914 665.04)"/><use xlink:href="#c" transform="matrix(19.60959 0 0 -19.60959 455.259 665.04)"/><use xlink:href="#d" transform="matrix(19.60959 0 0 -19.60959 465.631 665.04)"/><use xlink:href="#j" transform="matrix(19.60959 0 0 -19.60959 473.218 665.04)"/><symbol id="k"><path d="M.19 0 0 .716h.097l.11-.47A2.44 2.44 0 0 0 .236.1c.018.077.028.12.032.132l.136.484h.114L.622.354A1.92 1.92 0 0 0 .677.1c.01.045.021.097.036.156l.112.46H.92L.724 0H.633L.482.545.459.63A1.746 1.746 0 0 0 .44.545L.286 0H.19z"/></symbol><use xlink:href="#k" transform="matrix(19.60959 0 0 -19.60959 228.11 210.99)"/><use xlink:href="#d" transform="matrix(19.60959 0 0 -19.60959 246.381 210.99)"/><use xlink:href="#e" transform="matrix(19.60959 0 0 -19.60959 252.647 211.23)"/><use xlink:href="#k" transform="matrix(19.60959 0 0 -19.60959 228.29 239.07)"/><use xlink:href="#d" transform="matrix(19.60959 0 0 -19.60959 246.561 239.07)"/><use xlink:href="#g" transform="matrix(19.60959 0 0 -19.60959 252.262 239.07)"/><use xlink:href="#k" transform="matrix(19.60959 0 0 -19.60959 228.23 267.21)"/><use xlink:href="#d" transform="matrix(19.60959 0 0 -19.60959 246.501 267.21)"/><use xlink:href="#h" transform="matrix(19.60959 0 0 -19.60959 252.776 267.459)"/><use xlink:href="#k" transform="matrix(19.60959 0 0 -19.60959 228.35 295.29)"/><use xlink:href="#d" transform="matrix(19.60959 0 0 -19.60959 246.621 295.29)"/><use xlink:href="#i" transform="matrix(19.60959 0 0 -19.60959 252.654 295.29)"/><use xlink:href="#k" transform="matrix(19.60959 0 0 -19.60959 230.93 323.34)"/><use xlink:href="#d" transform="matrix(19.60959 0 0 -19.60959 249.201 323.34)"/><use xlink:href="#j" transform="matrix(19.60959 0 0 -19.60959 256.788 323.34)"/><symbol id="l"><path d="M0 0v.716h.269a.327.327 0 0 0 .13-.022.166.166 0 0 0 .079-.067.174.174 0 0 0 .028-.094C.506.503.498.473.48.446A.178.178 0 0 0 .406.381.173.173 0 0 0 .54.208a.209.209 0 0 0-.074-.16.222.222 0 0 0-.079-.036A.483.483 0 0 0 .273 0H0m.095.415H.25c.042 0 .072.003.09.008A.1.1 0 0 1 .394.46a.102.102 0 0 1 .019.062.114.114 0 0 1-.017.063.085.085 0 0 1-.05.037.398.398 0 0 1-.108.01H.095V.415m0-.33h.178a.41.41 0 0 1 .064.003c.022.004.04.01.055.02C.407.116.42.13.428.146c.01.018.014.038.014.06 0 .027-.006.05-.02.07a.106.106 0 0 1-.057.041.344.344 0 0 1-.105.013H.095V.084z"/></symbol><use xlink:href="#l" transform="matrix(19.60959 0 0 -19.60959 775.816 736.56)"/><use xlink:href="#l" transform="matrix(19.60959 0 0 -19.60959 788.896 736.56)"/><use xlink:href="#j" transform="matrix(19.60959 0 0 -19.60959 802.674 736.56)"/><use xlink:href="#l" transform="matrix(19.60959 0 0 -19.60959 714.766 736.56)"/><use xlink:href="#l" transform="matrix(19.60959 0 0 -19.60959 727.846 736.56)"/><use xlink:href="#i" transform="matrix(19.60959 0 0 -19.60959 740.07 736.56)"/><use xlink:href="#l" transform="matrix(19.60959 0 0 -19.60959 656.116 736.56)"/><use xlink:href="#l" transform="matrix(19.60959 0 0 -19.60959 669.196 736.56)"/><use xlink:href="#h" transform="matrix(19.60959 0 0 -19.60959 681.663 736.809)"/><use xlink:href="#l" transform="matrix(19.60959 0 0 -19.60959 893.896 736.56)"/><use xlink:href="#l" transform="matrix(19.60959 0 0 -19.60959 906.976 736.56)"/><use xlink:href="#j" transform="matrix(19.60959 0 0 -19.60959 920.754 736.56)"/><use xlink:href="#l" transform="matrix(19.60959 0 0 -19.60959 952.396 736.56)"/><use xlink:href="#l" transform="matrix(19.60959 0 0 -19.60959 965.476 736.56)"/><use xlink:href="#i" transform="matrix(19.60959 0 0 -19.60959 977.7 736.56)"/><use xlink:href="#l" transform="matrix(19.60959 0 0 -19.60959 1010.866 736.56)"/><use xlink:href="#l" transform="matrix(19.60959 0 0 -19.60959 1023.946 736.56)"/><use xlink:href="#h" transform="matrix(19.60959 0 0 -19.60959 1036.413 736.809)"/><use xlink:href="#k" transform="matrix(19.60959 0 0 -19.60959 1404.47 210.99)"/><use xlink:href="#d" transform="matrix(19.60959 0 0 -19.60959 1422.741 210.99)"/><use xlink:href="#e" transform="matrix(19.60959 0 0 -19.60959 1429.007 211.23)"/><use xlink:href="#k" transform="matrix(19.60959 0 0 -19.60959 1404.62 239.07)"/><use xlink:href="#d" transform="matrix(19.60959 0 0 -19.60959 1422.891 239.07)"/><use xlink:href="#g" transform="matrix(19.60959 0 0 -19.60959 1428.592 239.07)"/><use xlink:href="#k" transform="matrix(19.60959 0 0 -19.60959 1404.59 267.21)"/><use xlink:href="#d" transform="matrix(19.60959 0 0 -19.60959 1422.861 267.21)"/><use xlink:href="#h" transform="matrix(19.60959 0 0 -19.60959 1429.136 267.459)"/><use xlink:href="#k" transform="matrix(19.60959 0 0 -19.60959 1404.71 295.29)"/><use xlink:href="#d" transform="matrix(19.60959 0 0 -19.60959 1422.981 295.29)"/><use xlink:href="#i" transform="matrix(19.60959 0 0 -19.60959 1429.014 295.29)"/><use xlink:href="#k" transform="matrix(19.60959 0 0 -19.60959 1407.29 323.34)"/><use xlink:href="#d" transform="matrix(19.60959 0 0 -19.60959 1425.561 323.34)"/><use xlink:href="#j" transform="matrix(19.60959 0 0 -19.60959 1433.148 323.34)"/><use xlink:href="#k" transform="matrix(19.60959 0 0 -19.60959 572.69 893.1)"/><use xlink:href="#d" transform="matrix(19.60959 0 0 -19.60959 590.961 893.1)"/><use xlink:href="#e" transform="matrix(19.60959 0 0 -19.60959 597.227 893.34)"/><use xlink:href="#k" transform="matrix(19.60959 0 0 -19.60959 572.87 921.18)"/><use xlink:href="#d" transform="matrix(19.60959 0 0 -19.60959 591.141 921.18)"/><use xlink:href="#g" transform="matrix(19.60959 0 0 -19.60959 596.842 921.18)"/><use xlink:href="#k" transform="matrix(19.60959 0 0 -19.60959 572.81 949.32)"/><use xlink:href="#d" transform="matrix(19.60959 0 0 -19.60959 591.082 949.32)"/><use xlink:href="#h" transform="matrix(19.60959 0 0 -19.60959 597.356 949.569)"/><use xlink:href="#k" transform="matrix(19.60959 0 0 -19.60959 572.93 977.4)"/><use xlink:href="#d" transform="matrix(19.60959 0 0 -19.60959 591.202 977.4)"/><use xlink:href="#i" transform="matrix(19.60959 0 0 -19.60959 597.234 977.4)"/><use xlink:href="#k" transform="matrix(19.60959 0 0 -19.60959 575.51 1005.45)"/><use xlink:href="#d" transform="matrix(19.60959 0 0 -19.60959 593.781 1005.45)"/><use xlink:href="#j" transform="matrix(19.60959 0 0 -19.60959 601.368 1005.45)"/><use xlink:href="#k" transform="matrix(19.60959 0 0 -19.60959 1095.62 893.1)"/><use xlink:href="#d" transform="matrix(19.60959 0 0 -19.60959 1113.891 893.1)"/><use xlink:href="#e" transform="matrix(19.60959 0 0 -19.60959 1120.157 893.34)"/><use xlink:href="#k" transform="matrix(19.60959 0 0 -19.60959 1095.8 921.18)"/><use xlink:href="#d" transform="matrix(19.60959 0 0 -19.60959 1114.071 921.18)"/><use xlink:href="#g" transform="matrix(19.60959 0 0 -19.60959 1119.772 921.18)"/><use xlink:href="#k" transform="matrix(19.60959 0 0 -19.60959 1095.74 949.32)"/><use xlink:href="#d" transform="matrix(19.60959 0 0 -19.60959 1114.011 949.32)"/><use xlink:href="#h" transform="matrix(19.60959 0 0 -19.60959 1120.286 949.569)"/><use xlink:href="#k" transform="matrix(19.60959 0 0 -19.60959 1095.86 977.4)"/><use xlink:href="#d" transform="matrix(19.60959 0 0 -19.60959 1114.131 977.4)"/><use xlink:href="#i" transform="matrix(19.60959 0 0 -19.60959 1120.164 977.4)"/><use xlink:href="#k" transform="matrix(19.60959 0 0 -19.60959 1098.44 1005.45)"/><use xlink:href="#d" transform="matrix(19.60959 0 0 -19.60959 1116.711 1005.45)"/><use xlink:href="#j" transform="matrix(19.60959 0 0 -19.60959 1124.298 1005.45)"/><use xlink:href="#l" transform="matrix(19.60959 0 0 -19.60959 1406.446 580.11)"/><use xlink:href="#l" transform="matrix(19.60959 0 0 -19.60959 1419.526 580.11)"/><use xlink:href="#j" transform="matrix(19.60959 0 0 -19.60959 1433.305 580.11)"/><use xlink:href="#l" transform="matrix(19.60959 0 0 -19.60959 1403.866 521.61)"/><use xlink:href="#l" transform="matrix(19.60959 0 0 -19.60959 1416.946 521.61)"/><use xlink:href="#i" transform="matrix(19.60959 0 0 -19.60959 1429.17 521.61)"/><use xlink:href="#l" transform="matrix(19.60959 0 0 -19.60959 1403.716 463.14)"/><use xlink:href="#l" transform="matrix(19.60959 0 0 -19.60959 1416.796 463.14)"/><use xlink:href="#h" transform="matrix(19.60959 0 0 -19.60959 1429.263 463.389)"/><use xlink:href="#l" transform="matrix(19.60959 0 0 -19.60959 235.546 580.11)"/><use xlink:href="#l" transform="matrix(19.60959 0 0 -19.60959 248.626 580.11)"/><use xlink:href="#j" transform="matrix(19.60959 0 0 -19.60959 262.404 580.11)"/><use xlink:href="#l" transform="matrix(19.60959 0 0 -19.60959 232.966 521.61)"/><use xlink:href="#l" transform="matrix(19.60959 0 0 -19.60959 246.046 521.61)"/><use xlink:href="#i" transform="matrix(19.60959 0 0 -19.60959 258.27 521.61)"/><use xlink:href="#l" transform="matrix(19.60959 0 0 -19.60959 232.846 463.14)"/><use xlink:href="#l" transform="matrix(19.60959 0 0 -19.60959 245.926 463.14)"/><use xlink:href="#h" transform="matrix(19.60959 0 0 -19.60959 258.393 463.389)"/><use xlink:href="#k" transform="matrix(19.60959 0 0 -19.60959 723.98 534.96)"/><use xlink:href="#d" transform="matrix(19.60959 0 0 -19.60959 742.251 534.96)"/><use xlink:href="#j" transform="matrix(19.60959 0 0 -19.60959 749.838 534.96)"/><use xlink:href="#k" transform="matrix(19.60959 0 0 -19.60959 531.8 534.96)"/><use xlink:href="#d" transform="matrix(19.60959 0 0 -19.60959 550.072 534.96)"/><use xlink:href="#i" transform="matrix(19.60959 0 0 -19.60959 556.104 534.96)"/><use xlink:href="#k" transform="matrix(19.60959 0 0 -19.60959 457.85 534.72)"/><use xlink:href="#d" transform="matrix(19.60959 0 0 -19.60959 476.121 534.72)"/><use xlink:href="#h" transform="matrix(19.60959 0 0 -19.60959 482.396 534.969)"/><use xlink:href="#k" transform="matrix(19.60959 0 0 -19.60959 401.42 534.96)"/><use xlink:href="#d" transform="matrix(19.60959 0 0 -19.60959 419.691 534.96)"/><use xlink:href="#g" transform="matrix(19.60959 0 0 -19.60959 425.392 534.96)"/><use xlink:href="#k" transform="matrix(19.60959 0 0 -19.60959 354.56 534.72)"/><use xlink:href="#d" transform="matrix(19.60959 0 0 -19.60959 372.831 534.72)"/><use xlink:href="#e" transform="matrix(19.60959 0 0 -19.60959 379.097 534.96)"/><use xlink:href="#l" transform="matrix(19.60959 0 0 -19.60959 1147.936 313.98)"/><use xlink:href="#l" transform="matrix(19.60959 0 0 -19.60959 1161.016 313.98)"/><use xlink:href="#j" transform="matrix(19.60959 0 0 -19.60959 1174.795 313.98)"/><use xlink:href="#l" transform="matrix(19.60959 0 0 -19.60959 1084.486 287.43)"/><use xlink:href="#l" transform="matrix(19.60959 0 0 -19.60959 1097.566 287.43)"/><use xlink:href="#i" transform="matrix(19.60959 0 0 -19.60959 1109.79 287.43)"/><use xlink:href="#l" transform="matrix(19.60959 0 0 -19.60959 930.016 260.1)"/><use xlink:href="#l" transform="matrix(19.60959 0 0 -19.60959 943.096 260.1)"/><use xlink:href="#h" transform="matrix(19.60959 0 0 -19.60959 955.563 260.349)"/><path stroke-width=".36" stroke-linecap="round" stroke-linejoin="round" fill="none" stroke="#000" d="M850.88 420.57v7.05"/></g><path stroke-width=".36" stroke-linecap="round" stroke-linejoin="round" fill="none" stroke="#000" d="M850.88 427.62v-7.05" data-name="grammes_axones"/><g data-name="panorama-tomes"><use xlink:href="#c" transform="matrix(19.60959 0 0 -19.60959 1218.099 415.59)"/><use xlink:href="#d" transform="matrix(19.60959 0 0 -19.60959 1228.471 415.59)"/><use xlink:href="#e" transform="matrix(19.60959 0 0 -19.60959 1234.737 415.83)"/><use xlink:href="#c" transform="matrix(19.60959 0 0 -19.60959 1027.899 415.59)"/><use xlink:href="#d" transform="matrix(19.60959 0 0 -19.60959 1038.272 415.59)"/><use xlink:href="#g" transform="matrix(19.60959 0 0 -19.60959 1043.972 415.59)"/><use xlink:href="#c" transform="matrix(19.60959 0 0 -19.60959 841.359 415.65)"/><use xlink:href="#d" transform="matrix(19.60959 0 0 -19.60959 851.731 415.65)"/><use xlink:href="#h" transform="matrix(19.60959 0 0 -19.60959 858.006 415.899)"/><use xlink:href="#c" transform="matrix(19.60959 0 0 -19.60959 676.509 415.65)"/><use xlink:href="#d" transform="matrix(19.60959 0 0 -19.60959 686.881 415.65)"/><use xlink:href="#i" transform="matrix(19.60959 0 0 -19.60959 692.914 415.65)"/><use xlink:href="#c" transform="matrix(19.60959 0 0 -19.60959 455.259 415.65)"/><use xlink:href="#d" transform="matrix(19.60959 0 0 -19.60959 465.631 415.65)"/><use xlink:href="#j" transform="matrix(19.60959 0 0 -19.60959 473.218 415.65)"/><use xlink:href="#l" transform="matrix(19.60959 0 0 -19.60959 775.816 1118.85)"/><use xlink:href="#l" transform="matrix(19.60959 0 0 -19.60959 788.896 1118.85)"/><use xlink:href="#j" transform="matrix(19.60959 0 0 -19.60959 802.674 1118.85)"/><use xlink:href="#l" transform="matrix(19.60959 0 0 -19.60959 714.766 1118.85)"/><use xlink:href="#l" transform="matrix(19.60959 0 0 -19.60959 727.846 1118.85)"/><use xlink:href="#i" transform="matrix(19.60959 0 0 -19.60959 740.07 1118.85)"/><use xlink:href="#l" transform="matrix(19.60959 0 0 -19.60959 656.116 1118.85)"/><use xlink:href="#l" transform="matrix(19.60959 0 0 -19.60959 669.196 1118.85)"/><use xlink:href="#h" transform="matrix(19.60959 0 0 -19.60959 681.663 1119.099)"/><use xlink:href="#l" transform="matrix(19.60959 0 0 -19.60959 893.896 1118.85)"/><use xlink:href="#l" transform="matrix(19.60959 0 0 -19.60959 906.976 1118.85)"/><use xlink:href="#j" transform="matrix(19.60959 0 0 -19.60959 920.754 1118.85)"/><use xlink:href="#l" transform="matrix(19.60959 0 0 -19.60959 952.396 1118.85)"/><use xlink:href="#l" transform="matrix(19.60959 0 0 -19.60959 965.476 1118.85)"/><use xlink:href="#i" transform="matrix(19.60959 0 0 -19.60959 977.7 1118.85)"/><use xlink:href="#l" transform="matrix(19.60959 0 0 -19.60959 1010.866 1118.85)"/><use xlink:href="#l" transform="matrix(19.60959 0 0 -19.60959 1023.946 1118.85)"/><use xlink:href="#h" transform="matrix(19.60959 0 0 -19.60959 1036.413 1119.099)"/></g></g></svg>